<svg xmlns="http://www.w3.org/2000/svg" width="1000" height="260" style="shape-rendering:geometricprecision;text-rendering:geometricprecision;image-rendering:optimizequality;fill-rule:evenodd;clip-rule:evenodd"><path style="opacity:1" fill="#c7a56c" d="M578.5 73.5h-1c1.321-9.893 2.654-19.893 4-30a31.783 31.783 0 0 1-2.5-9c-4.827-4.54-10.327-5.873-16.5-4-.617.11-1.117.444-1.5 1a53.068 53.068 0 0 0-1.5 14h-1a45.903 45.903 0 0 1 1.5-15c4.126-3.972 8.96-4.472 14.5-1.5 4.444 2.11 6.944 5.61 7.5 10.5-.144 11.232-1.311 22.566-3.5 34Z"/><path style="opacity:.133" fill="#efe0bc" d="M904.5 28.5a40.939 40.939 0 0 0-9 .5c-1.256.417-1.923 1.25-2 2.5h-1c-.219-1.175.114-2.175 1-3 3.815-2.567 7.481-2.567 11 0Z"/><path style="opacity:1" fill="#ef9d13" d="M904.5 28.5h1c2.982 2.492 5.482 5.492 7.5 9 .5 6.992.666 13.992.5 21l-2 4c1.096-7.71 1.096-13.377 0-17a16.603 16.603 0 0 1-7 .5l-7.5-7.5c-.537-2.687-.037-5.187 1.5-7.5a8.435 8.435 0 0 0-4-.5 315.19 315.19 0 0 1-2 39c1.175-.219 2.175.114 3 1-1.604 1.679-2.271 3.679-2 6a46.797 46.797 0 0 0-13 1v-2h1c2.948.277 5.781-.056 8.5-1 1.41-5.88 1.91-11.88 1.5-18 .79-1.108 1.29-2.442 1.5-4 .5-6.992.666-13.992.5-21 .077-1.25.744-2.083 2-2.5a40.939 40.939 0 0 1 9-.5Z"/><path style="opacity:1" fill="#f59d05" d="M577.5 73.5v6h9c2.728.33 5.062-.337 7-2h3c5.494.424 7.494 3.424 6 9a11.99 11.99 0 0 1-6-1c-.886.825-1.219 1.825-1 3a19.374 19.374 0 0 1-8-1c-.886.825-1.219 1.825-1 3h-8c.067 1.459-.266 2.792-1 4-1.948 1.82-2.948 4.154-3 7-1.158 9.825-1.325 19.825-.5 30 .383.556.883.889 1.5 1v2c-.71 3.36.624 5.193 4 5.5 2 .667 4 .667 6 0 2.153-.099 3.819-.933 5-2.5 2.333-1.333 4.667-1.333 7 0a24.93 24.93 0 0 1 1 8c-7.185 3.46-14.852 4.794-23 4-2.123-2.297-4.79-3.63-8-4a40.085 40.085 0 0 1-6-9 34.824 34.824 0 0 0-2.5-8l-1-40c-1.786-1.6-3.953-2.433-6.5-2.5 5.534-3.395 4.867-4.895-2-4.5.219 1.175-.114 2.175-1 3a13.115 13.115 0 0 1-1-7v-2c4.002.464 7.669-.202 11-2a957.76 957.76 0 0 0 4-43c6.173-1.873 11.673-.54 16.5 4a31.783 31.783 0 0 0 2.5 9 89196.927 89196.927 0 0 1-4 30Z"/><path style="opacity:1" fill="#d1b27c" d="M905.5 28.5c6.874 2.212 10.208 7.045 10 14.5a196.761 196.761 0 0 1-2 15.5c.166-7.008 0-14.008-.5-21-2.018-3.508-4.518-6.508-7.5-9Z"/><path style="opacity:1" fill="#c29d6c" d="M19.5 41.5c2.254.624 3.92 1.957 5 4-2.295-.636-3.961-1.969-5-4Z"/><path style="opacity:1" fill="#c09a63" d="M19.5 41.5c-2.58-.417-4.746.25-6.5 2-.086 3.244.747 6.244 2.5 9-4.128-3.02-5.128-6.687-3-11 2.473-1.297 4.807-1.297 7 0Z"/><path style="opacity:1" fill="#bb8f40" d="M892.5 31.5h1c.166 7.008 0 14.008-.5 21-.21 1.558-.71 2.892-1.5 4v-9a84.03 84.03 0 0 1 1-16Z"/><path style="opacity:1" fill="#c3a16b" d="M15.5 52.5c2.949 1.873 4.949 4.54 6 8a27.683 27.683 0 0 1-6-8Z"/><path style="opacity:1" fill="#caa46c" d="M24.5 45.5c4.822 1.498 8.822 4.164 12 8a23.795 23.795 0 0 1-6-2.5c-1.928-2.09-3.928-3.924-6-5.5Z"/><path style="opacity:1" fill="#ddc7a5" d="M833.5 53.5c-3.07-.132-6.07.201-9 1 .111-.617.444-1.117 1-1.5 2.867-.8 5.534-.634 8 .5Z"/><path style="opacity:1" fill="#e59c29" d="M833.5 53.5c3.19.187 5.19 1.854 6 5v9h-1c.429-3.757-.237-7.257-2-10.5a4.932 4.932 0 0 0-3-.5c-.048 2.792 1.285 4.625 4 5.5a4.932 4.932 0 0 1-3 .5 4.934 4.934 0 0 1-.5 3c-1.156-8.802-5.322-11.469-12.5-8 0-2 1-3 3-3a29.221 29.221 0 0 1 9-1Z"/><path style="opacity:1" fill="#bfa06e" d="M987.5 57.5c-2.885-.306-5.552.027-8 1a19.24 19.24 0 0 1-6 1c1.1-1.059 2.434-1.892 4-2.5 3.527-.807 6.86-.64 10 .5Z"/><path style="opacity:1" fill="#cdaf79" d="M839.5 58.5c2.38 2.947 2.38 5.947 0 9v-9Z"/><path style="opacity:1" fill="#c5a671" d="M21.5 60.5c3.248 1.804 5.581 4.47 7 8-3.02-2.023-5.354-4.69-7-8Z"/><path style="opacity:1" fill="#ccb58e" d="M891.5 47.5v9c.41 6.12-.09 12.12-1.5 18-2.719.944-5.552 1.277-8.5 1 2.131-.814 4.464-1.314 7-1.5a9.457 9.457 0 0 0 1.5-2.5c.171-8.177.671-16.177 1.5-24Z"/><path style="opacity:1" fill="#b19871" d="M449.5 66.5c-6.056-2.676-12.39-3.843-19-3.5-.837 1.011-1.17 2.178-1 3.5-1.781-3.393-.614-5.393 3.5-6a306.05 306.05 0 0 1 15 4c1.03.336 1.53 1.003 1.5 2Z"/><path style="opacity:1" fill="#e59e25" d="M562.5 30.5a957.76 957.76 0 0 1-4 43c.167-9.34.5-18.674 1-28a53.068 53.068 0 0 1 1.5-14c.383-.556.883-.89 1.5-1Z"/><path style="opacity:1" fill="#cca15e" d="M987.5 57.5c3.754 1.328 4.921 3.994 3.5 8-.278.916-.778 1.582-1.5 2 .345-3.615-.322-6.948-2-10Z"/><path style="opacity:1" fill="#caa66c" d="M973.5 59.5a549.365 549.365 0 0 1-8 7c-3.113 3.942-4.779 8.442-5 13.5a77.978 77.978 0 0 1 1 14.5c-6.572-15.405-2.572-27.071 12-35Z"/><path style="opacity:1" fill="#c5ad85" d="M913.5 58.5c-.347 5.18-1.013 10.18-2 15v-11l2-4Z"/><path style="opacity:1" fill="#e89a1c" d="M449.5 66.5c.647.774.98 1.774 1 3 .16 1.855-.507 3.188-2 4-2.958 1.041-5.958 1.041-9 0-1.546-2.43-3.879-3.764-7-4-.473-1.406-1.473-2.073-3-2v-1c-.17-1.322.163-2.489 1-3.5 6.61-.343 12.944.824 19 3.5Z"/><path style="opacity:1" fill="#cda770" d="M42.5 57.5c7.956 3.798 14.956 8.798 21 15a3759.93 3759.93 0 0 0-11-6 192.189 192.189 0 0 0-10-9Z"/><path style="opacity:1" fill="#e5c6a2" d="M429.5 67.5c1.527-.073 2.527.594 3 2-1.527.073-2.527-.594-3-2Z"/><path style="opacity:1" fill="#b79664" d="M558.5 45.5h1a785.12 785.12 0 0 0-1 28c-3.331 1.798-6.998 2.464-11 2 2.469-.817 5.135-1.317 8-1.5l2-2c.219-3.029-.114-6.196-1-9.5a56.914 56.914 0 0 0 2-17Z"/><path style="opacity:1" fill="#df9a2d" d="M979.5 58.5c2.448-.973 5.115-1.306 8-1 1.678 3.052 2.345 6.385 2 10a25.647 25.647 0 0 1-6 6h-2v-5a51.648 51.648 0 0 1 7-1c.247-6.36-2.753-9.36-9-9Z"/><path style="opacity:1" fill="#cba96c" d="M432.5 69.5c3.121.236 5.454 1.57 7 4-2.6-.968-4.934-2.3-7-4Z"/><path style="opacity:1" fill="#d1b179" d="M28.5 68.5c4.908 3.769 8.908 8.436 12 14a88.917 88.917 0 0 1-12-14Z"/><path style="opacity:1" fill="#c4a36f" d="M64.5 72.5a234.384 234.384 0 0 1 24 17 465.795 465.795 0 0 1-23-14.5c-.752-.67-1.086-1.504-1-2.5Z"/><path style="opacity:1" fill="#deb987" d="M258.5 71.5c-2.885-.306-5.552.027-8 1l-6 2c.444-1.613 1.444-2.78 3-3.5 3.858-.81 7.524-.643 11 .5Z"/><path style="opacity:1" fill="#c9ab78" d="M439.5 73.5c3.042 1.041 6.042 1.041 9 0-1.122 1.447-2.622 2.447-4.5 3-1.652-.9-3.152-1.9-4.5-3Z"/><path style="opacity:1" fill="#d49732" d="M911.5 63.5v10c-.951 1.419-1.284 3.085-1 5-.652-.949-.986-2.115-1-3.5.392-4.022 1.058-7.856 2-11.5Z"/><path style="opacity:.106" fill="#f6efce" d="M501.5 74.5c-.709.904-1.709 1.237-3 1a21.445 21.445 0 0 0-7 1c.111-.617.444-1.117 1-1.5a40.939 40.939 0 0 1 9-.5Z"/><path style="opacity:1" fill="#caa467" d="m528.5 82.5 1 4c-2.215-3.726-5.048-7.06-8.5-10a62.656 62.656 0 0 0-17.5-2c4.454-2.45 9.121-2.616 14-.5 5.286.791 8.953 3.624 11 8.5Z"/><path style="opacity:1" fill="#f49d07" d="M979.5 58.5c6.247-.36 9.247 2.64 9 9a51.648 51.648 0 0 0-7 1v5c-1.453 2.798-2.453 5.798-3 9-1.138 2.803-1.305 5.803-.5 9a156.167 156.167 0 0 1 5.5 22 145.053 145.053 0 0 1-.5 17 66.214 66.214 0 0 1-3.5 10c0 .667-.333 1-1 1-1.208-.734-2.541-1.067-4-1 .17 1.322-.163 2.489-1 3.5-2.851 1.289-5.851 1.789-9 1.5-1.915.284-3.581-.049-5-1-1.53-1.846-3.53-2.846-6-3v-4c2.164-.221 3.83-1.221 5-3 3.232-.272 5.232-1.938 6-5 .958-.453 1.792-1.119 2.5-2 .499-3.652.665-7.318.5-11a52.016 52.016 0 0 0-1.5-10c-.2-1.82-1.034-3.153-2.5-4v-2c.446-2.51-.22-4.51-2-6a77.978 77.978 0 0 0-1-14.5c.221-5.058 1.887-9.558 5-13.5a549.365 549.365 0 0 0 8-7 19.24 19.24 0 0 0 6-1Z"/><path style="opacity:1" fill="#f69d03" d="M911.5 62.5v1c-.942 3.644-1.608 7.478-2 11.5.014 1.385.348 2.551 1 3.5 2.587 1.316 5.587 1.983 9 2a47.331 47.331 0 0 0 11.5-2c1.326.255 2.326.922 3 2 .495 1.973.662 3.973.5 6-8.372 2.954-17.039 4.788-26 5.5 1.256.417 1.923 1.25 2 2.5h-3v3c-1.159 11.493-1.326 23.159-.5 35 .912 3.205 2.745 5.539 5.5 7a40.914 40.914 0 0 0 9-.5c.556-.383.889-.883 1-1.5 6.778-1.555 9.778 1.112 9 8-2.949.431-5.616 1.598-8 3.5l-8 .5c-4.937-.192-9.604-1.192-14-3-1.093-2.761-3.093-4.427-6-5 .073-1.527-.594-2.527-2-3a68.752 68.752 0 0 1-2-11 381.292 381.292 0 0 0-1-39 202.683 202.683 0 0 1-9.5-4 24.935 24.935 0 0 1-.5-7 46.797 46.797 0 0 1 13-1c-.271-2.321.396-4.321 2-6-.825-.886-1.825-1.219-3-1a315.19 315.19 0 0 0 2-39 8.435 8.435 0 0 1 4 .5c-1.537 2.313-2.037 4.813-1.5 7.5l7.5 7.5c2.347.334 4.681.167 7-.5 1.096 3.623 1.096 9.29 0 17Z"/><path style="opacity:.02" fill="#f7f0d5" d="M244.5 74.5v2c-.904.709-1.237 1.709-1 3-1.43-1.955-1.097-3.621 1-5Z"/><path style="opacity:1" fill="#c79a4c" d="M498.5 75.5a231.156 231.156 0 0 1-13 4c1.107-2.469 3.107-3.469 6-3a21.445 21.445 0 0 1 7-1Z"/><path style="opacity:1" fill="#bb9661" d="M547.5 75.5v2c-1.78 1.49-2.446 3.49-2 6-1.122-1.788-1.289-3.788-.5-6 .417-1.256 1.25-1.923 2.5-2Z"/><path style="opacity:.02" fill="#faf2d4" d="M596.5 76.5v1h-3a20.676 20.676 0 0 0-5 1c2.135-1.869 4.802-2.536 8-2Z"/><path style="opacity:1" fill="#e4d1a5" d="M981.5 73.5h2a57.802 57.802 0 0 1-5 9c.547-3.202 1.547-6.202 3-9Z"/><path style="opacity:1" fill="#f49d08" d="M250.5 72.5c2.808.193 5.475.86 8 2v3h4a305.162 305.162 0 0 1-1 26h4v-4c1.574-1.602 2.241-3.602 2-6l11-10a19.24 19.24 0 0 0 6-1 110.596 110.596 0 0 0 18-2c10.206.344 10.206 1.844 0 4.5-1.323.816-1.989 1.983-2 3.5-3.622 2.478-7.622 3.811-12 4-.751-1.073-1.751-1.24-3-.5.457.414.791.914 1 1.5-1.545.952-3.212 1.285-5 1-.319-3.8-1.319-3.966-3-.5a6.544 6.544 0 0 1 3 3c-1.333.667-1.333 1.333 0 2-1.544.29-2.877.956-4 2 1.607 1.049 2.273 2.549 2 4.5a20.69 20.69 0 0 1-5 1 98.901 98.901 0 0 0-2 11c-.876-.131-1.543.202-2 1-3.987 7.845-6.32 16.179-7 25-7.923 3.63-14.09 1.63-18.5-6-.5-20.331-.667-40.664-.5-61v-2l6-2Z"/><path style="opacity:1" fill="#cab180" d="M880.5 75.5v2c-1.165.996-1.832 2.33-2 4 .546 1.635.88 3.301 1 5-1.739-1.875-2.739-4.208-3-7 .348-2.348 1.682-3.682 4-4Z"/><path style="opacity:.004" fill="#efe4c1" d="M303.5 78.5v1a118.468 118.468 0 0 0-16 1c.763-.768 1.763-1.268 3-1.5a84.94 84.94 0 0 1 13-.5Z"/><path style="opacity:.133" fill="#f2e1ba" d="M577.5 73.5h1v5h8v1h-9v-6Z"/><path style="opacity:1" fill="#a88144" d="M593.5 77.5c-1.938 1.663-4.272 2.33-7 2v-1h2a20.676 20.676 0 0 1 5-1Z"/><path style="opacity:1" fill="#ccaa78" d="m746.5 82.5-3-2c-4.682-3.539-9.682-3.872-15-1-.632 2.602-1.632 4.936-3 7-.486-4.07.847-7.236 4-9.5 5.268-1.068 10.268-.401 15 2 1.323.816 1.989 1.983 2 3.5Z"/><path style="opacity:1" fill="#e4c285" d="M911.5 73.5a6.845 6.845 0 0 0 1 4c3.979 1.005 7.979 1.005 12 0-1.723 1.3-3.89 1.967-6.5 2a33.327 33.327 0 0 1-7.5-1c-.284-1.915.049-3.581 1-5Z"/><path style="opacity:1" fill="#d99f42" d="M821.5 57.5a285.79 285.79 0 0 1-3 27 88.23 88.23 0 0 0 1 10c-.617-.11-1.117-.444-1.5-1-.5-6.992-.666-13.992-.5-21a74.058 74.058 0 0 1 1.5-12c.377-1.442 1.21-2.442 2.5-3Z"/><path style="opacity:1" fill="#a68860" d="m405.5 79.5-3 4-2 1c.667-2.667 2.333-4.333 5-5Z"/><path style="opacity:1" fill="#f3e1b8" d="M264.5 79.5c.978.311 1.645.978 2 2a41.67 41.67 0 0 1-2 6v-8Z"/><path style="opacity:1" fill="#ae9157" d="m287.5 80.5-3 2a19.24 19.24 0 0 1-6 1c2.584-1.972 5.584-2.972 9-3Z"/><path style="opacity:1" fill="#df9a20" d="M303.5 79.5a32.438 32.438 0 0 1 8 .5c1.205 2.234.539 3.9-2 5-3.026 1.183-6.026 2.35-9 3.5.011-1.517.677-2.684 2-3.5 10.206-2.656 10.206-4.156 0-4.5a110.596 110.596 0 0 1-18 2l3-2a118.468 118.468 0 0 1 16-1Z"/><path style="opacity:.02" fill="#fcf0d2" d="M484.5 81.5c-.841 1.88-1.175 3.88-1 6-.647-.774-.98-1.774-1-3 .14-1.53.807-2.53 2-3Z"/><path style="opacity:1" fill="#e7d1ab" d="M817.5 72.5c-.166 7.008 0 14.008.5 21 .383.556.883.89 1.5 1v7c-.707-1.73-1.707-3.397-3-5a159.421 159.421 0 0 1 1-24Z"/><path style="opacity:.004" fill="#fff3d0" d="M40.5 82.5c1 .333 1.667 1 2 2-1.333 0-2-.667-2-2Z"/><path style="opacity:1" fill="#dd9b2f" d="M935.5 77.5c.51 4.313-.157 8.313-2 12h-1a156.927 156.927 0 0 0-14 2c-3.035.04-5.702 1.04-8 3-.077-1.25-.744-2.083-2-2.5 8.961-.712 17.628-2.546 26-5.5a18.452 18.452 0 0 0-.5-6c-.674-1.078-1.674-1.745-3-2a47.331 47.331 0 0 1-11.5 2c-3.413-.017-6.413-.684-9-2 2.413.612 4.913.945 7.5 1 2.61-.033 4.777-.7 6.5-2 3.667-1.333 7.333-1.333 11 0Z"/><path style="opacity:1" fill="#d1a15c" d="M935.5 77.5a30.217 30.217 0 0 0 3 3.5 34.041 34.041 0 0 0-1.5 7.5c-1.011.837-2.178 1.17-3.5 1 1.843-3.687 2.51-7.687 2-12Z"/><path style="opacity:1" fill="#e59c22" d="M547.5 77.5a13.115 13.115 0 0 0 1 7c.886-.825 1.219-1.825 1-3 6.867-.395 7.534 1.105 2 4.5 2.547.067 4.714.9 6.5 2.5l1 40a34.824 34.824 0 0 1 2.5 8h-2c-1.431-1.28-2.098-2.947-2-5a840.27 840.27 0 0 0-.5-41 9.457 9.457 0 0 0-1.5-2.5 97.442 97.442 0 0 1-9-1.5c-.904-.709-1.237-1.709-1-3-.446-2.51.22-4.51 2-6Z"/><path style="opacity:1" fill="#c4a26b" d="M838.5 67.5h1c-5.298 12.97-4.965 25.97 1 39-2.425-1.214-3.925-3.214-4.5-6-2-10-2-20 0-30a81.819 81.819 0 0 1 2.5-3Z"/><path style="opacity:.004" fill="#f7e4bf" d="M42.5 84.5c1.762.762 2.762 2.096 3 4-1.762-.762-2.762-2.096-3-4Z"/><path style="opacity:1" fill="#c39d64" d="M303.5 79.5v-1a25.87 25.87 0 0 1 10 1c1.289 2.65.789 4.984-1.5 7l-1-1a111.514 111.514 0 0 0-23.5 12c-.284-1.915.049-3.581 1-5 4.378-.189 8.378-1.522 12-4 2.974-1.15 5.974-2.317 9-3.5 2.539-1.1 3.205-2.766 2-5a32.438 32.438 0 0 0-8-.5Z"/><path style="opacity:1" fill="#e9d7b7" d="M417.5 84.5c1.402 3.79 1.069 7.456-1 11a72.033 72.033 0 0 0 1-11Z"/><path style="opacity:1" fill="#b19362" d="M746.5 83.5a41.343 41.343 0 0 0 2.5 6 235.37 235.37 0 0 0 13.5-3c4.696.67 9.363 1.504 14 2.5a25.154 25.154 0 0 1 4 4.5 5.728 5.728 0 0 1-3-1c-3.439-3.2-7.605-4.534-12.5-4a409.445 409.445 0 0 0-18.5 2v-7Z"/><path style="opacity:1" fill="#c3a678" d="M603.5 87.5c.12 2.705-.88 3.371-3 2a44.333 44.333 0 0 1-10 2 89.414 89.414 0 0 1 13-4Z"/><path style="opacity:.078" fill="#e8ddbc" d="M879.5 86.5c1.653.16 2.986.826 4 2-1.88.27-3.213-.396-4-2Z"/><path style="opacity:1" fill="#d79a30" d="M250.5 72.5c2.448-.973 5.115-1.306 8-1 3.23 1.877 5.23 4.544 6 8v11a52.325 52.325 0 0 0-1.5 12 81.316 81.316 0 0 1 2.5-3v4h-4a305.162 305.162 0 0 0 1-26h-4v-3a23.148 23.148 0 0 0-8-2Z"/><path style="opacity:.02" fill="#f1e7c6" d="M528.5 82.5c1.636 1.249 2.803 2.916 3.5 5 .823 8.51.657 16.844-.5 25 .166-8.007 0-16.007-.5-24-.278-.916-.778-1.582-1.5-2l-1-4Z"/><path style="opacity:1" fill="#db9d3c" d="M596.5 77.5v-1c2.865-.445 5.365.222 7.5 2 .805 3.197.638 6.197-.5 9a89.414 89.414 0 0 0-13 4 66.046 66.046 0 0 0-11 3h-2c.734-1.208 1.067-2.541 1-4h8c-.219-1.175.114-2.175 1-3a19.374 19.374 0 0 0 8 1c-.219-1.175.114-2.175 1-3a11.99 11.99 0 0 0 6 1c1.494-5.576-.506-8.576-6-9Z"/><path style="opacity:1" fill="#d6bc8d" d="M45.5 88.5c4.741 2.548 8.408 6.215 11 11-3.925-3.258-7.592-6.925-11-11Z"/><path style="opacity:1" fill="#b2925c" d="M483.5 87.5c4.096 1.78 8.429 2.446 13 2h3v1c-3.99.69-7.99.857-12 .5-2.044-.498-3.378-1.665-4-3.5Z"/><path style="opacity:.008" fill="#d8c9a5" d="M512.5 88.5a95.059 95.059 0 0 0-13 2v-1c2.994-.654 5.994-1.32 9-2 1.545.01 2.878.344 4 1Z"/><path style="opacity:1" fill="#f59d06" d="M743.5 80.5c.535 4 1.201 8 2 12 .586.21 1.086.543 1.5 1 10.056-4.582 20.223-4.916 30.5-1 .891.61 1.891.943 3 1a172.472 172.472 0 0 1 9 18v3c.166 6.342 0 12.675-.5 19-.908 1.939-2.408 2.939-4.5 3v3c-3.611.456-6.944-.211-10-2a353.72 353.72 0 0 1-3-27c.453-3.152-.547-5.652-3-7.5-3.858-.81-7.524-.643-11 .5l-1 2h-1c-5.143-.17-9.143 1.83-12 6-.996-.086-1.829.248-2.5 1a368.684 368.684 0 0 0-3.5 31h-3v5a98.901 98.901 0 0 0-11-2 60.658 60.658 0 0 1-2-18l2-22c1.824-6.482 2.491-13.15 2-20 1.368-2.064 2.368-4.398 3-7 5.318-2.872 10.318-2.539 15 1Z"/><path style="opacity:1" fill="#e7d6aa" d="M886.5 88.5c1.527-.073 2.527.594 3 2v3a29.551 29.551 0 0 0-3-5Z"/><path style="opacity:.02" fill="#cebe9f" d="M932.5 89.5c-4.386 1.783-9.053 2.783-14 3v-1a156.927 156.927 0 0 1 14-2Z"/><path style="opacity:1" fill="#b49564" d="m278.5 83.5-11 10c2.365-4.696 6.032-8.03 11-10Z"/><path style="opacity:1" fill="#e9a033" d="M288.5 92.5c-.951 1.419-1.284 3.085-1 5-2.333 3-5 5.667-8 8 .273-1.951-.393-3.451-2-4.5 1.123-1.044 2.456-1.71 4-2-1.333-.667-1.333-1.333 0-2a6.544 6.544 0 0 0-3-3c1.681-3.466 2.681-3.3 3 .5 1.788.285 3.455-.048 5-1a3.647 3.647 0 0 0-1-1.5c1.249-.74 2.249-.573 3 .5Z"/><path style="opacity:1" fill="#cfa35d" d="M417.5 84.5a72.033 72.033 0 0 1-1 11 27.432 27.432 0 0 1-2 11h-1a245.013 245.013 0 0 0 2.5-22c-1.243-2.333-2.909-3-5-2-.519-1.016-1.353-1.682-2.5-2a640.09 640.09 0 0 1-6 3l3-4c5.318-1.679 9.318-.012 12 5Z"/><path style="opacity:1" fill="#e49c26" d="m743.5 80.5 3 2v8a409.445 409.445 0 0 1 18.5-2c4.895-.534 9.061.8 12.5 4-10.277-3.916-20.444-3.582-30.5 1a3.646 3.646 0 0 0-1.5-1c-.799-4-1.465-8-2-12Z"/><path style="opacity:1" fill="#c19b5b" d="M359.5 116.5c-.672 2.842-2.006 5.342-4 7.5-1.284.684-2.451.517-3.5-.5a179.631 179.631 0 0 0-16.5-32c-3.759-1.408-7.425-1.242-11 .5-1.304.804-1.971 1.97-2 3.5.546 1.635.88 3.301 1 5-4.504-5.018-3.504-8.85 3-11.5 7.655-1.03 12.821 2.136 15.5 9.5a428.945 428.945 0 0 1 12 25 59.425 59.425 0 0 1 5.5-7Z"/><path style="opacity:1" fill="#cfae74" d="M449.5 93.5h-12a19.222 19.222 0 0 1-1 6c-.973 2.448-1.306 5.115-1 8-1.335-4.574-1.168-9.24.5-14 4.654-3.817 9.154-3.817 13.5 0Z"/><path style="opacity:1" fill="#f59d06" d="M19.5 41.5c1.039 2.031 2.705 3.364 5 4 2.072 1.576 4.072 3.41 6 5.5a23.795 23.795 0 0 0 6 2.5c2.352.84 4.352 2.174 6 4a192.189 192.189 0 0 1 10 9 3759.93 3759.93 0 0 1 11 6h1c-.086.996.248 1.83 1 2.5a465.795 465.795 0 0 0 23 14.5c1.597 2.264 3.597 4.264 6 6a3222.126 3222.126 0 0 0 19 12c1.527-.073 2.527.594 3 2 1.716 2.69 4.049 4.69 7 6v4l12 4v4a29.753 29.753 0 0 1 7 2l8 4c.221 1.235.888 2.235 2 3-2.766 1.629-5.766 2.295-9 2 .067 1.459-.266 2.792-1 4a24.935 24.935 0 0 0-7 .5c.88 1.356 1.214 2.856 1 4.5-4.668-.661-6.668 1.339-6 6-2.669 4.824-3.669 10.157-3 16h-3v-1c-5-5.667-10.333-11-16-16l-2-3c-1.333-3.333-3.667-5.667-7-7a25.647 25.647 0 0 1-6-6c.219-1.175-.114-2.175-1-3a32.797 32.797 0 0 0-7-5l-9-8c-.645-2.326-1.978-3.993-4-5-1.42-3.088-3.753-5.088-7-6 .012-2.642-1.321-3.975-4-4-.974-2.635-2.64-4.635-5-6-2.592-4.785-6.259-8.452-11-11-.238-1.904-1.238-3.238-3-4-.333-1-1-1.667-2-2-3.092-5.564-7.092-10.231-12-14-1.419-3.53-3.752-6.196-7-8-1.051-3.46-3.051-6.127-6-8-1.753-2.756-2.586-5.756-2.5-9 1.754-1.75 3.92-2.417 6.5-2Z"/><path style="opacity:1" fill="#c49f68" d="M88.5 89.5a168.128 168.128 0 0 1 25 18 3222.126 3222.126 0 0 1-19-12c-2.403-1.736-4.403-3.736-6-6Z"/><path style="opacity:1" fill="#caa26a" d="M449.5 93.5c3.673.835 5.673 3.168 6 7a30.023 30.023 0 0 1-6-7Z"/><path style="opacity:1" fill="#d4a861" d="M918.5 91.5v1c-4.828.831-8.162 3.498-10 8h-1v-6h3c2.298-1.96 4.965-2.96 8-3Z"/><path style="opacity:1" fill="#f59c06" d="M449.5 93.5a30.023 30.023 0 0 0 6 7 265.976 265.976 0 0 0 2 35 108.627 108.627 0 0 1-1 12h-13a82.909 82.909 0 0 1-4-15 209.486 209.486 0 0 0-3-33c.65-1.935.983-3.935 1-6h12Z"/><path style="opacity:1" fill="#bb945d" d="M267.5 93.5c.241 2.398-.426 4.398-2 6v-2c.16-1.653.826-2.986 2-4Z"/><path style="opacity:1" fill="#f59c05" d="M656.5 96.5c7.296-.653 14.296.347 21 3 3.608-1.093 7.275-1.26 11-.5l2 6a3.647 3.647 0 0 0-1 1.5c2.067.634 3.9 1.634 5.5 3 .908-1.939 2.408-2.939 4.5-3v4c-15.038-.65-29.705.017-44 2a251.951 251.951 0 0 1-26 3c-1.903-.296-3.57-.963-5-2-.473-1.406-1.473-2.073-3-2-.667-2-2-3.333-4-4a8.43 8.43 0 0 1 .5-4 19.552 19.552 0 0 0 3.5-4 397.943 397.943 0 0 1 35-3Z"/><path style="opacity:1" fill="#c19652" d="M780.5 93.5c2.124.531 3.624 1.865 4.5 4a26.221 26.221 0 0 1 3.5 9 20.69 20.69 0 0 0 1 5 172.472 172.472 0 0 0-9-18Z"/><path style="opacity:1" fill="#c09a54" d="M961.5 94.5c1.78 1.49 2.446 3.49 2 6h-1c-.841-1.88-1.175-3.88-1-6Z"/><path style="opacity:.043" fill="#f4e2b9" d="M264.5 90.5c-.302 2.56.032 4.893 1 7v2a81.316 81.316 0 0 0-2.5 3c.044-4.12.544-8.12 1.5-12Z"/><path style="opacity:1" fill="#cba972" d="M688.5 97.5a386.012 386.012 0 0 0-22-2c-3.518.002-6.851.335-10 1a397.943 397.943 0 0 0-35 3c1.648-1.427 3.648-2.26 6-2.5a307.503 307.503 0 0 1 52-2 67.643 67.643 0 0 1 9 2.5Z"/><path style="opacity:1" fill="#c4a267" d="M978.5 82.5a925.554 925.554 0 0 1 6 31h-1a156.167 156.167 0 0 0-5.5-22c-.805-3.197-.638-6.197.5-9Z"/><path style="opacity:1" fill="#f1d4a1" d="M56.5 99.5c2.36 1.365 4.026 3.365 5 6-2.39-1.391-4.057-3.391-5-6Z"/><path style="opacity:1" fill="#a58548" d="M514.5 91.5c1.547 2.307 2.213 4.973 2 8-.005 2.196-.338 4.196-1 6v-5a104.653 104.653 0 0 1-1-9Z"/><path style="opacity:1" fill="#cba767" d="M725.5 86.5c.491 6.85-.176 13.518-2 20h-1a316.787 316.787 0 0 1 3-20Z"/><path style="opacity:1" fill="#c6ac85" d="M546.5 86.5a97.442 97.442 0 0 0 9 1.5 9.457 9.457 0 0 1 1.5 2.5c.5 13.663.667 27.329.5 41a791.918 791.918 0 0 1-1.5-40c-2.228-2.468-5.062-3.635-8.5-3.5-.556-.383-.889-.883-1-1.5Z"/><path style="opacity:1" fill="#d39a42" d="M757.5 103.5c3.476-1.143 7.142-1.31 11-.5 2.453 1.848 3.453 4.348 3 7.5h-1c.108-2.014-.558-3.68-2-5-.111-.617-.444-1.117-1-1.5a50.464 50.464 0 0 0-10-.5Z"/><path style="opacity:1" fill="#d59d39" d="M880.5 77.5c-.163 2.357.003 4.69.5 7a202.683 202.683 0 0 0 9.5 4 381.292 381.292 0 0 1 1 39l-2-37c-.473-1.406-1.473-2.073-3-2h-3c-1.014-1.174-2.347-1.84-4-2a20.223 20.223 0 0 0-1-5c.168-1.67.835-3.004 2-4Z"/><path style="opacity:.043" fill="#f9f2d3" d="M962.5 100.5h1v2l1 4c-.617.111-1.117.444-1.5 1a24.935 24.935 0 0 1-.5-7Z"/><path style="opacity:1" fill="#de9a26" d="M511.5 112.5h4v-7c.662-1.804.995-3.804 1-6 .213-3.027-.453-5.693-2-8l-2-3c-1.122-.656-2.455-.99-4-1-3.006.68-6.006 1.346-9 2h-3c3.583-1.463 7.416-2.463 11.5-3 4.842-.487 8.176 1.513 10 6l.5 7a5237.8 5237.8 0 0 0-2 14 6.846 6.846 0 0 0-4 1c-.798-.457-1.131-1.124-1-2Z"/><path style="opacity:1" fill="#eb9e1c" d="M656.5 96.5c3.149-.665 6.482-.998 10-1a386.012 386.012 0 0 1 22 2c3.182.448 5.849 1.782 8 4a55.017 55.017 0 0 0 4.5 6 12.93 12.93 0 0 1 .5 5c-11.481-1.254-22.814-1.254-34 0h-12c14.295-1.983 28.962-2.65 44-2v-4c-2.092.061-3.592 1.061-4.5 3a15.265 15.265 0 0 0-5.5-3 3.647 3.647 0 0 1 1-1.5l-2-6c-3.725-.76-7.392-.593-11 .5-6.704-2.653-13.704-3.653-21-3Z"/><path style="opacity:1" fill="#e6d3ac" d="M757.5 103.5c3.35-.165 6.683.002 10 .5.556.383.889.883 1 1.5-4-1.333-8-1.333-12 0l1-2Z"/><path style="opacity:1" fill="#bc9b67" d="M400.5 84.5a444.867 444.867 0 0 1-1.5 21c-.383.556-.883.889-1.5 1 .408-7.55 1.408-14.884 3-22Z"/><path style="opacity:1" fill="#c2a47f" d="M621.5 99.5a19.552 19.552 0 0 1-3.5 4 8.43 8.43 0 0 0-.5 4c-1.932-4.113-.598-6.78 4-8Z"/><path style="opacity:.02" fill="#f4e6c2" d="M861.5 105.5c4.749 1.567 6.083 4.567 4 9 .446-2.51-.22-4.51-2-6l-2-3Z"/><path style="opacity:1" fill="#ddb779" d="M61.5 105.5c2.679.025 4.012 1.358 4 4-1.667-1-3-2.333-4-4Z"/><path style="opacity:1" fill="#d69d41" d="M436.5 99.5a209.486 209.486 0 0 1 3 33h-1v-3c-.313-4.853-.979-9.52-2-14-.973-2.448-1.306-5.115-1-8-.306-2.885.027-5.552 1-8Z"/><path style="opacity:.078" fill="#f3edc9" d="M489.5 106.5v1c-1.291-.237-2.291.096-3 1h-1c.683-1.676 2.017-2.343 4-2Z"/><path style="opacity:1" fill="#a28656" d="M504.5 108.5a89.41 89.41 0 0 0-15-1v-1c5.243-.959 10.243-.292 15 2Z"/><path style="opacity:1" fill="#d0b286" d="M860.5 105.5a203.672 203.672 0 0 0-16 2c.672-.767 1.505-1.434 2.5-2 4.449-.989 8.949-.989 13.5 0Z"/><path style="opacity:1" fill="#d7a557" d="M279.5 105.5a6874.866 6874.866 0 0 1-7 12 98.901 98.901 0 0 1 2-11 20.69 20.69 0 0 0 5-1Z"/><path style="opacity:1" fill="#d2b277" d="M617.5 107.5c2 .667 3.333 2 4 4-2.273-.457-3.606-1.79-4-4Z"/><path style="opacity:1" fill="#c19c5f" d="M696.5 101.5c5.352 1.839 7.518 5.506 6.5 11l-1.5 1.5c-10.312-1.081-20.978-1.581-32-1.5h-2c11.186-1.254 22.519-1.254 34 0a12.93 12.93 0 0 0-.5-5 55.017 55.017 0 0 1-4.5-6Z"/><path style="opacity:.043" fill="#fcf2d5" d="M413.5 106.5h1c.389 3.053-.277 5.72-2 8l1-6v-2Z"/><path style="opacity:1" fill="#cfb082" d="M515.5 100.5v12h-4c-2.831-.579-5.164-1.912-7-4a30.228 30.228 0 0 0 10 3c-.315-3.871.018-7.538 1-11Z"/><path style="opacity:1" fill="#dec292" d="M755.5 105.5c-4.787 1.414-8.787 4.08-12 8v-2c2.857-4.17 6.857-6.17 12-6Z"/><path style="opacity:1" fill="#f59d06" d="M838.5 67.5c-.815.93-1.648 1.93-2.5 3-2 10-2 20 0 30 .575 2.786 2.075 4.786 4.5 6 1.459-.067 2.792.266 4 1a203.672 203.672 0 0 1 16-2h1l2 3c1.105 2.213 1.105 4.38 0 6.5a1339.964 1339.964 0 0 1-23 6.5 112.97 112.97 0 0 0 .5 15 752.855 752.855 0 0 0 4.5 21 32.462 32.462 0 0 0 .5 8c.278.916.778 1.582 1.5 2 .226 6.2-.44 12.2-2 18-.992-.172-1.658.162-2 1-1.322.17-2.489-.163-3.5-1-.617.949-.451 1.782.5 2.5-2.727.818-5.394.652-8-.5-2.398-2.121-2.565-4.455-.5-7 1.231-13.681.398-27.181-2.5-40.5 2.988-2.877 2.321-4.377-2-4.5 0-1.333-.667-2-2-2a10.165 10.165 0 0 0-3-3c-.111-.617-.444-1.117-1-1.5l-14-1c-2.852-2.376-3.518-5.209-2-8.5.333-1 1-1.667 2-2 4.559-1.028 8.725-3.028 12.5-6 1.483-3.202 1.817-6.536 1-10-.383-.556-.883-.889-1.5-1v-6a88.23 88.23 0 0 1-1-10 285.79 285.79 0 0 0 3-27c7.178-3.469 11.344-.802 12.5 8a4.934 4.934 0 0 0 .5-3 4.932 4.932 0 0 0 3-.5c-2.715-.875-4.048-2.708-4-5.5a4.932 4.932 0 0 1 3 .5c1.763 3.243 2.429 6.743 2 10.5Z"/><path style="opacity:1" fill="#e8cfac" d="M907.5 100.5h1c.06 10.543.06 20.876 0 31-.994-10.153-1.328-20.486-1-31Z"/><path style="opacity:1" fill="#ceab75" d="M65.5 109.5c3.247.912 5.58 2.912 7 6-3.17-.983-5.502-2.983-7-6Z"/><path style="opacity:1" fill="#cead75" d="M116.5 109.5c3.43 1.042 6.097 3.042 8 6h-1c-2.951-1.31-5.284-3.31-7-6Z"/><path style="opacity:1" fill="#f49d07" d="M413.5 106.5v2c-1.765 2.623-2.432 5.623-2 9-1.902 2.837-2.569 6.171-2 10-1.756 1.052-2.423 2.719-2 5-2.716 4.523-4.049 9.523-4 15-4.405.592-8.738.592-13 0h-4c-.321-1.548-1.321-2.215-3-2 .012-2.642-1.321-3.975-4-4-1.024-4.07-3.024-7.404-6-10-.287-2.984-1.954-4.317-5-4-1.217 6.648-3.217 12.982-6 19-5.813 1.584-11.48 1.251-17-1a104.398 104.398 0 0 1-12.5-31 72.496 72.496 0 0 1-5.5-10c-.457-.798-1.124-1.131-2-1-1.406-.473-2.073-1.473-2-3a20.223 20.223 0 0 0-1-5c.029-1.53.696-2.696 2-3.5 3.575-1.742 7.241-1.908 11-.5a179.631 179.631 0 0 1 16.5 32c1.049 1.017 2.216 1.184 3.5.5 1.994-2.158 3.328-4.658 4-7.5 2.7-1.734 4.7-4.068 6-7 4.991-1.225 9.991-1.225 15 0a139.292 139.292 0 0 1 9 18h1c.275 2.342 1.108 2.342 2.5 0a63.372 63.372 0 0 1 4-12c.498-2.982.665-5.982.5-9 .617-.111 1.117-.444 1.5-1a444.867 444.867 0 0 0 1.5-21l2-1a640.09 640.09 0 0 0 6-3c1.147.318 1.981.984 2.5 2 2.091-1 3.757-.333 5 2a245.013 245.013 0 0 1-2.5 22Z"/><path style="opacity:1" fill="#c0a770" d="M380.5 109.5c-5.009-1.225-10.009-1.225-15 0 4.9-3.545 9.9-3.545 15 0Z"/><path style="opacity:1" fill="#bb9252" d="m413.5 108.5-1 6c.237 1.291-.096 2.291-1 3-.432-3.377.235-6.377 2-9Z"/><path style="opacity:1" fill="#d39a38" d="M574.5 101.5a269.94 269.94 0 0 0 1 31c-.617-.111-1.117-.444-1.5-1-.825-10.175-.658-20.175.5-30Z"/><path style="opacity:.235" fill="#f3e1c6" d="M788.5 106.5c1.723 2.28 2.389 4.947 2 8h-1v-3a20.69 20.69 0 0 1-1-5Z"/><path style="opacity:1" fill="#cea461" d="M819.5 100.5c.617.111 1.117.444 1.5 1 .817 3.464.483 6.798-1 10-3.775 2.972-7.941 4.972-12.5 6 3.52-2.684 7.353-5.018 11.5-7 .498-2.982.665-5.982.5-9v-1Z"/><path style="opacity:1" fill="#d4b88c" d="m889.5 90.5 2 37a68.752 68.752 0 0 0 2 11c-2.301-3.583-3.801-7.583-4.5-12a190.337 190.337 0 0 1 .5-33v-3Z"/><path style="opacity:1" fill="#dfc497" d="M621.5 111.5c1.527-.073 2.527.594 3 2-1.527.073-2.527-.594-3-2Z"/><path style="opacity:1" fill="#c19953" d="M963.5 102.5c1.466.847 2.3 2.18 2.5 4a52.016 52.016 0 0 1 1.5 10h-1a27.555 27.555 0 0 1-2-10l-1-4Z"/><path style="opacity:1" fill="#b88f59" d="M365.5 109.5c-1.3 2.932-3.3 5.266-6 7a30.137 30.137 0 0 1 3.5-6c.671-.752 1.504-1.086 2.5-1Z"/><path style="opacity:1" fill="#d99726" d="M529.5 86.5c.722.418 1.222 1.084 1.5 2 .5 7.993.666 15.993.5 24v3a36.27 36.27 0 0 0-3 10 303.623 303.623 0 0 1 2-24.5c-.128-4.86-.461-9.693-1-14.5Z"/><path style="opacity:1" fill="#b89259" d="M655.5 112.5h8c-1.419.951-3.085 1.284-5 1a39.712 39.712 0 0 1-11 1c-1.459-.067-2.792.266-4 1-4.767 1.297-9.434 1.297-14 0a251.951 251.951 0 0 0 26-3Z"/><path style="opacity:.017" fill="#f7eed2" d="M663.5 112.5h6c-3.544 2.069-7.21 2.402-11 1 1.915.284 3.581-.049 5-1Z"/><path style="opacity:1" fill="#be9e6a" d="M397.5 106.5a40.914 40.914 0 0 1-.5 9 63.372 63.372 0 0 0-4 12c-1.392 2.342-2.225 2.342-2.5 0 .617-.111 1.117-.444 1.5-1a330.525 330.525 0 0 1 5.5-20Z"/><path style="opacity:1" fill="#c29c65" d="M72.5 115.5c2.022 1.007 3.355 2.674 4 5-2.022-1.007-3.355-2.674-4-5Z"/><path style="opacity:.004" fill="#ede0c4" d="M647.5 114.5c-1.205 1.638-2.538 1.971-4 1 1.208-.734 2.541-1.067 4-1Z"/><path style="opacity:1" fill="#cda15f" d="M380.5 109.5c4.406 3.123 7.072 7.456 8 13a20.69 20.69 0 0 1 1 5 139.292 139.292 0 0 0-9-18Z"/><path style="opacity:1" fill="#d7a659" d="M743.5 111.5v2a99.577 99.577 0 0 1-3 15c-1.081 3.127-1.747 6.46-2 10 .302 2.559-.032 4.893-1 7v-2a368.684 368.684 0 0 1 3.5-31c.671-.752 1.504-1.086 2.5-1Z"/><path style="opacity:1" fill="#df9d2f" d="M123.5 115.5h2c1.656 3.238 4.323 5.238 8 6a18.478 18.478 0 0 1 6 4c.647 1.641 1.647 2.974 3 4a29.753 29.753 0 0 0-7-2v-4l-12-4v-4Z"/><path style="opacity:1" fill="#ccae77" d="M125.5 115.5a27.68 27.68 0 0 1 8 6c-3.677-.762-6.344-2.762-8-6Z"/><path style="opacity:.012" fill="#f0e7c6" d="M856.5 118.5c-1.135 1.713-2.802 2.38-5 2 1.43-1.037 3.097-1.704 5-2Z"/><path style="opacity:1" fill="#c9a873" d="M325.5 103.5c.876-.131 1.543.202 2 1a72.496 72.496 0 0 0 5.5 10 104.398 104.398 0 0 0 12.5 31c-2.124-.531-3.624-1.865-4.5-4a404.044 404.044 0 0 0-15.5-38Z"/><path style="opacity:1" fill="#d2ad68" d="M411.5 117.5c.111.617.444 1.117 1 1.5-.694 3.025-1.694 5.858-3 8.5-.569-3.829.098-7.163 2-10Z"/><path style="opacity:1" fill="#efd7a2" d="M577.5 94.5h2c-2.208 2.095-3.375 4.762-3.5 8a219.958 219.958 0 0 0 .5 32h-1v-2a269.94 269.94 0 0 1-1-31c.052-2.846 1.052-5.18 3-7Z"/><path style="opacity:.008" fill="#fff7cf" d="m76.5 120.5 9 8 1 2c-4.333-2.333-7.667-5.667-10-10Z"/><path style="opacity:.016" fill="#f8efd0" d="M436.5 115.5c1.021 4.48 1.687 9.147 2 14-.722-.418-1.222-1.084-1.5-2a72.367 72.367 0 0 1-.5-12Z"/><path style="opacity:1" fill="#eee0b9" d="M966.5 116.5h1a60.931 60.931 0 0 1-.5 11c-.708.881-1.542 1.547-2.5 2 1.778-4.065 2.445-8.399 2-13Z"/><path style="opacity:1" fill="#c9a468" d="M485.5 108.5h1c-4.717 2.12-8.884 5.12-12.5 9a55.328 55.328 0 0 0 .5 16c-6.58-12.527-2.913-20.86 11-25Z"/><path style="opacity:1" fill="#f59c06" d="M501.5 74.5h2a62.656 62.656 0 0 1 17.5 2c3.452 2.94 6.285 6.274 8.5 10 .539 4.807.872 9.64 1 14.5a303.623 303.623 0 0 0-2 24.5v2c-.994 9.152-1.327 18.485-1 28a32.462 32.462 0 0 1-8-.5c-.971-1.481-2.304-2.315-4-2.5a27.266 27.266 0 0 0-3-9c-2.728-.329-5.062.337-7 2-11.783 2.19-21.116-1.476-28-11a5.576 5.576 0 0 0-3-1 55.328 55.328 0 0 1-.5-16c3.616-3.88 7.783-6.88 12.5-9 .709-.904 1.709-1.237 3-1a89.41 89.41 0 0 1 15 1c1.836 2.088 4.169 3.421 7 4-.131.876.202 1.543 1 2a6.846 6.846 0 0 1 4-1 5237.8 5237.8 0 0 1 2-14l-.5-7c-1.824-4.487-5.158-6.487-10-6-4.084.537-7.917 1.537-11.5 3-4.571.446-8.904-.22-13-2-.175-2.12.159-4.12 1-6-.172-.992.162-1.658 1-2a231.156 231.156 0 0 0 13-4c1.291.237 2.291-.096 3-1Zm-10 48c1.068-.934 2.401-1.268 4-1 .077 1.25.744 2.083 2 2.5l-5 2.5c-.886-.825-1.219-1.825-1-3 .863.963 1.53.963 2 0-.457-.798-1.124-1.131-2-1Zm-1-4c.543.06.876.393 1 1-3.23 5.013-3.563 4.679-1-1Zm10 12a4.934 4.934 0 0 1-3-.5c3.65-5.827 4.65-5.66 3 .5Zm-7-3c2.501.011 2.668.678.5 2a2.428 2.428 0 0 1-.5-2Z"/><path style="opacity:.011" fill="#fcfaf0" d="M501.5 119.5v1c1.21.432 2.21 1.099 3 2 3.984 2.3 3.984 4.633 0 7l-4 1c-5.487 3.102-10.154 2.102-14-3-.686-3.787.314-6.954 3-9.5 4.19-.81 8.19-.31 12 1.5Zm-10 3c1.068-.934 2.401-1.268 4-1 .077 1.25.744 2.083 2 2.5l-5 2.5c-.886-.825-1.219-1.825-1-3 .863.963 1.53.963 2 0-.457-.798-1.124-1.131-2-1Zm-1-4c-2.563 5.679-2.23 6.013 1 1-.124-.607-.457-.94-1-1Zm10 12c1.65-6.16.65-6.327-3-.5a4.934 4.934 0 0 0 3 .5Zm-7-3a2.428 2.428 0 0 0 .5 2c2.168-1.322 2.001-1.989-.5-2Z"/><path style="opacity:.004" fill="#fffaff" d="M491.5 123.5v-1c.876-.131 1.543.202 2 1-.47.963-1.137.963-2 0Z"/><path style="opacity:1" fill="#d09425" d="M501.5 119.5c-3.81-1.81-7.81-2.31-12-1.5-2.686 2.546-3.686 5.713-3 9.5-1.902-2.837-2.569-6.171-2-10a50.963 50.963 0 0 1 16-.5c.752.671 1.086 1.504 1 2.5Z"/><path style="opacity:.008" fill="#fdf4d4" d="M388.5 122.5c1.713 1.135 2.38 2.802 2 5h-1a20.69 20.69 0 0 0-1-5Z"/><path style="opacity:1" fill="#bda173" d="M805.5 119.5c-1.518 3.291-.852 6.124 2 8.5l14 1c.556.383.889.883 1 1.5-4.212-.807-8.045-.807-11.5 0-4.299-.468-6.799-2.801-7.5-7-.16-1.855.507-3.188 2-4Z"/><path style="opacity:1" fill="#de9f37" d="M907.5 97.5v3c-.328 10.514.006 20.847 1 31-.237 1.291.096 2.291 1 3a9.82 9.82 0 0 0 3 4v1c-2.755-1.461-4.588-3.795-5.5-7-.826-11.841-.659-23.507.5-35Z"/><path style="opacity:1" fill="#cba564" d="M983.5 113.5h1c3.103 9.986 1.436 18.986-5 27a66.214 66.214 0 0 0 3.5-10c.499-5.657.666-11.324.5-17Z"/><path style="opacity:1" fill="#d69f46" d="M863.5 108.5c1.78 1.49 2.446 3.49 2 6-.077 1.25-.744 2.083-2 2.5a52.56 52.56 0 0 1-7 1.5c-1.903.296-3.57.963-5 2a85.504 85.504 0 0 0-9 4c-1.141 3.14-1.308 6.473-.5 10 .383.556.883.889 1.5 1 1.063 4.139 1.73 8.472 2 13v9a752.855 752.855 0 0 1-4.5-21 112.97 112.97 0 0 1-.5-15 1339.964 1339.964 0 0 0 23-6.5c1.105-2.12 1.105-4.287 0-6.5Z"/><path style="opacity:1" fill="#d4bb8d" d="M139.5 125.5a34.253 34.253 0 0 1 11 8l-8-4c-1.353-1.026-2.353-2.359-3-4Z"/><path style="opacity:1" fill="#c49456" d="M409.5 127.5a21.435 21.435 0 0 1-1 7h-1v-2c-.423-2.281.244-3.948 2-5Z"/><path style="opacity:1" fill="#bd8b32" d="M486.5 127.5c3.846 5.102 8.513 6.102 14 3l4-1c-2.532 2.574-5.699 3.908-9.5 4a86.92 86.92 0 0 1-8.5-2v-4Z"/><path style="opacity:1" fill="#eddcba" d="M740.5 128.5c.341 3.66-.325 6.993-2 10 .253-3.54.919-6.873 2-10Z"/><path style="opacity:1" fill="#fceec4" d="M908.5 131.5c1.981.605 2.315 1.605 1 3-.904-.709-1.237-1.709-1-3Z"/><path style="opacity:1" fill="#efb559" d="M85.5 128.5a32.797 32.797 0 0 1 7 5c.886.825 1.219 1.825 1 3h-1c-2.667-1.333-4.667-3.333-6-6l-1-2Z"/><path style="opacity:1" fill="#d0ad7a" d="M842.5 124.5a49.369 49.369 0 0 0 1 11c-.617-.111-1.117-.444-1.5-1-.808-3.527-.641-6.86.5-10Z"/><path style="opacity:1" fill="#d0b888" d="M964.5 129.5c-.768 3.062-2.768 4.728-6 5a579.57 579.57 0 0 1 6-5Z"/><path style="opacity:1" fill="#c3a668" d="M373.5 131.5c2.976 2.596 4.976 5.93 6 10-.958-.453-1.792-1.119-2.5-2a50.656 50.656 0 0 1-3.5-8Z"/><path style="opacity:1" fill="#c4a26d" d="M825.5 133.5c1.333 0 2 .667 2 2a71.65 71.65 0 0 1 2 16v5a194.527 194.527 0 0 1-4-23Z"/><path style="opacity:.004" fill="#fdffe9" d="M86.5 136.5c-.667-1.333-.667-1.333 0 0ZM86.5 136.5c1.333.667 1.333.667 0 0Z"/><path style="opacity:1" fill="#c7a66f" d="M770.5 110.5h1a353.72 353.72 0 0 0 3 27c3.056 1.789 6.389 2.456 10 2v-3c2.092-.061 3.592-1.061 4.5-3 .5-6.325.666-12.658.5-19h1c1.14 6.988.974 13.988-.5 21-4.84 6.131-10.506 7.131-17 3a335.572 335.572 0 0 1-2.5-28Z"/><path style="opacity:.004" fill="#fde8c0" d="M92.5 136.5h1a25.647 25.647 0 0 0 6 6l3 4c-4.333-2.333-7.667-5.667-10-10Z"/><path style="opacity:1" fill="#c3a778" d="M150.5 133.5c1.987.664 3.654 1.831 5 3.5-4.345 1.84-8.678 3.673-13 5.5.734-1.208 1.067-2.541 1-4 3.234.295 6.234-.371 9-2-1.112-.765-1.779-1.765-2-3Z"/><path style="opacity:.004" fill="#f7efd1" d="M407.5 134.5h1c.432 3.377-.235 6.377-2 9 .463-2.982.796-5.982 1-9Z"/><path style="opacity:1" fill="#d1a761" d="M373.5 131.5c-.958-.453-1.792-1.119-2.5-2-1.347 5.243-3.347 10.576-6 16-.671.752-1.504 1.086-2.5 1 2.783-6.018 4.783-12.352 6-19 3.046-.317 4.713 1.016 5 4Z"/><path style="opacity:.009" fill="#f3e9ca" d="M458.5 133.5c1.66 3.27 1.994 6.603 1 10a76.926 76.926 0 0 1-1-10Z"/><path style="opacity:1" fill="#b18b50" d="M575.5 134.5h1a17.858 17.858 0 0 0 5 5 130.13 130.13 0 0 1 9-2c-1.181 1.567-2.847 2.401-5 2.5-2 .667-4 .667-6 0-3.376-.307-4.71-2.14-4-5.5Z"/><path style="opacity:1" fill="#c8b792" d="M922.5 137.5c-.111.617-.444 1.117-1 1.5a40.914 40.914 0 0 1-9 .5v-1a34.163 34.163 0 0 0 10-1Z"/><path style="opacity:1" fill="#d39c39" d="M528.5 127.5v29h-10l-3-4c1.696.185 3.029 1.019 4 2.5 2.646.497 5.313.664 8 .5-.327-9.515.006-18.848 1-28Z"/><path style="opacity:1" fill="#ad8c54" d="M722.5 106.5h1l-2 22c-.987 4.805-1.321 9.805-1 15-1.126-12.275-.46-24.608 2-37Z"/><path style="opacity:.004" fill="#f5e4c4" d="M893.5 138.5c1.406.473 2.073 1.473 2 3-1.406-.473-2.073-1.473-2-3Z"/><path style="opacity:.013" fill="#fffbe1" d="M166.5 141.5c.597-.639 1.43-.972 2.5-1 1.699-.113 2.866.553 3.5 2a19.22 19.22 0 0 0-6-1Z"/><path style="opacity:1" fill="#ae8c57" d="M244.5 76.5c-.167 20.336 0 40.669.5 61 4.41 7.63 10.577 9.63 18.5 6 .68-8.821 3.013-17.155 7-25 .457-.798 1.124-1.131 2-1-3.59 7.942-6.09 16.275-7.5 25a6.978 6.978 0 0 1-2.5 3.5c-13.115 2.388-19.782-3.112-20-16.5a668.442 668.442 0 0 0 1-50c-.237-1.291.096-2.291 1-3Z"/><path style="opacity:1" fill="#cfb17c" d="M438.5 132.5h1a82.909 82.909 0 0 0 4 15c-1.673-.843-2.84-2.176-3.5-4a46.94 46.94 0 0 1-1.5-11Z"/><path style="opacity:1" fill="#c09a60" d="M474.5 133.5a5.576 5.576 0 0 1 3 1c6.884 9.524 16.217 13.19 28 11-9.251 2.372-17.918.872-26-4.5a54.223 54.223 0 0 1-5-7.5Z"/><path style="opacity:1" fill="#cdaa73" d="M559.5 136.5h2a40.085 40.085 0 0 0 6 9c-3.999-1.699-6.666-4.699-8-9Z"/><path style="opacity:1" fill="#bc965b" d="M958.5 134.5c-1.17 1.779-2.836 2.779-5 3v4c2.47.154 4.47 1.154 6 3h-2c-3.13-1.072-5.796-2.906-8-5.5 2.786-2.06 5.786-3.56 9-4.5Z"/><path style="opacity:1" fill="#b38a4c" d="M978.5 141.5c-3.576 4.385-8.243 6.052-14 5v-1c3.149.289 6.149-.211 9-1.5.837-1.011 1.17-2.178 1-3.5 1.459-.067 2.792.266 4 1Z"/><path style="opacity:1" fill="#e6aa49" d="M99.5 142.5c3.333 1.333 5.667 3.667 7 7l-2-1c-1.333 0-2-.667-2-2l-3-4Z"/><path style="opacity:1" fill="#d5a04c" d="M142.5 142.5a579.57 579.57 0 0 1-6 5c.214-1.644-.12-3.144-1-4.5a24.935 24.935 0 0 1 7-.5Z"/><path style="opacity:1" fill="#dbae6b" d="M379.5 141.5c2.679.025 4.012 1.358 4 4 1.679-.215 2.679.452 3 2-3.247-.912-5.58-2.912-7-6Z"/><path style="opacity:1" fill="#b29563" d="M531.5 115.5a563.147 563.147 0 0 1-2 22.5 90.627 90.627 0 0 1 1 14.5c.16 1.855-.507 3.188-2 4v-31a36.27 36.27 0 0 1 3-10Z"/><path style="opacity:1" fill="#dcbc83" d="M895.5 141.5c2.907.573 4.907 2.239 6 5-2.589-.919-4.589-2.586-6-5Z"/><path style="opacity:1" fill="#f59d04" d="M180.5 148.5h1a8.43 8.43 0 0 0 .5 4 123.321 123.321 0 0 1 11 18c8.378 6.264 17.212 11.598 26.5 16v8c-1.788-.285-3.455.048-5 1a29.087 29.087 0 0 0-5 4c-2.888-.51-5.221.156-7 2h-1a83.16 83.16 0 0 0-16 2 98.432 98.432 0 0 0-14 .5c-.556.383-.889.883-1 1.5h-14a120.494 120.494 0 0 1-15-11c-7.478-8.851-10.145-19.184-8-31 2.741-1.8 4.241-4.466 4.5-8 5.563-5.537 12.063-9.704 19.5-12.5 8.628-1.759 16.294.074 23 5.5Z"/><path style="opacity:1" fill="#c0955a" d="M567.5 145.5c3.21.37 5.877 1.703 8 4-3.221-.396-5.888-1.729-8-4Z"/><path style="opacity:1" fill="#d2ac70" d="M597.5 137.5c3.402 2.842 3.735 6.008 1 9.5-7.452 4.362-15.119 5.196-23 2.5 8.148.794 15.815-.54 23-4a24.93 24.93 0 0 0-1-8Z"/><path style="opacity:.005" fill="#e2d4b6" d="M957.5 144.5h2c1.419.951 3.085 1.284 5 1v1a18.453 18.453 0 0 1-6-.5c-.556-.383-.889-.883-1-1.5Z"/><path style="opacity:1" fill="#c49d64" d="M166.5 141.5a19.22 19.22 0 0 1 6 1c3.861.579 6.527 2.579 8 6-6.706-5.426-14.372-7.259-23-5.5-7.437 2.796-13.937 6.963-19.5 12.5-.259 3.534-1.759 6.2-4.5 8 1.271-4.223 3.271-7.89 6-11a6.547 6.547 0 0 0 3-3c6.932-6.089 14.932-8.755 24-8Z"/><path style="opacity:.004" fill="#fef4d9" d="M406.5 144.5c.215 1.679-.452 2.679-2 3 .432-1.21 1.099-2.21 2-3Z"/><path style="opacity:1" fill="#d79f42" d="M721.5 128.5a60.658 60.658 0 0 0 2 18 98.901 98.901 0 0 1 11 2v-5h3v2c.203 1.89-.463 3.39-2 4.5-5.374 1.392-10.041.225-14-3.5a5.576 5.576 0 0 1-1-3c-.321-5.195.013-10.195 1-15Z"/><path style="opacity:1" fill="#967642" d="M345.5 145.5c5.52 2.251 11.187 2.584 17 1-2.307 1.547-4.973 2.213-8 2l-6-.5c-1.442-.377-2.442-1.21-3-2.5Z"/><path style="opacity:1" fill="#d89729" d="M407.5 132.5v2a104.618 104.618 0 0 1-1 9v1c-.901.79-1.568 1.79-2 3-.333 1-1 1.667-2 2a60.931 60.931 0 0 1-11-.5c-.556-.383-.889-.883-1-1.5 4.262.592 8.595.592 13 0-.049-5.477 1.284-10.477 4-15Z"/><path style="opacity:1" fill="#bb9250" d="M455.5 100.5c1.788 10.785 2.788 21.785 3 33 .116 3.36.449 6.693 1 10-1.707 6.026-5.707 8.192-12 6.5-1.566-.608-2.9-1.442-4-2.5h13c.554-3.965.887-7.965 1-12a265.976 265.976 0 0 1-2-35Z"/><path style="opacity:1" fill="#d0aa6e" d="m515.5 152.5 3 4c-1.517-.011-2.684-.677-3.5-2a4750.748 4750.748 0 0 0-4.5-9.5 29.812 29.812 0 0 0-5 .5c1.938-1.663 4.272-2.329 7-2a27.266 27.266 0 0 1 3 9Z"/><path style="opacity:1" fill="#cba468" d="M922.5 137.5c5.896-2.575 9.896-.742 12 5.5-1.399 3.064-3.732 5.064-7 6-9.266 3.612-17.933 2.779-26-2.5 4.396 1.808 9.063 2.808 14 3l8-.5c2.384-1.902 5.051-3.069 8-3.5.778-6.888-2.222-9.555-9-8Z"/><path style="opacity:1" fill="#e2a545" d="M136.5 147.5a21.614 21.614 0 0 1-4 5l-2 1c-.668-4.661 1.332-6.661 6-6Z"/><path style="opacity:.02" fill="#f6e3bd" d="m104.5 148.5 2 1 2 3c-2.333-.333-3.667-1.667-4-4Z"/><path style="opacity:1" fill="#be9455" d="M386.5 147.5h4c.111.617.444 1.117 1 1.5 3.652.499 7.318.665 11 .5-.709.904-1.709 1.237-3 1h-5c-3.331.482-5.997-.518-8-3Z"/><path style="opacity:.012" fill="#fdfee1" d="M142.5 149.5a6.547 6.547 0 0 1-3 3c0-2 1-3 3-3Z"/><path style="opacity:1" fill="#ffebc7" d="M394.5 150.5h5c-.283.789-.783 1.456-1.5 2a19.602 19.602 0 0 1-3.5-2Z"/><path style="opacity:.004" fill="#fdffe9" d="M102.5 152.5c-.667-1.333-.667-1.333 0 0ZM102.5 152.5c1.333.667 1.333.667 0 0Z"/><path style="opacity:.008" fill="#f4ddb6" d="M108.5 152.5c5.667 5 11 10.333 16 16a60.87 60.87 0 0 1-16-16Z"/><path style="opacity:1" fill="#d0b47f" d="M518.5 156.5h10c-3.447 2.207-6.78 2.207-10 0Z"/><path style="opacity:1" fill="#c9aa72" d="M132.5 152.5a82.296 82.296 0 0 0-5 17c-.669-5.843.331-11.176 3-16l2-1Z"/><path style="opacity:1" fill="#d0a666" d="M845.5 148.5a139.422 139.422 0 0 1 2 16v3c-.722-.418-1.222-1.084-1.5-2a32.462 32.462 0 0 1-.5-8v-9Z"/><path style="opacity:.004" fill="#fdffe9" d="M118.5 168.5c-.667-1.333-.667-1.333 0 0Z"/><path style="opacity:1" fill="#a48655" d="M829.5 151.5c1.546 4.733 2.213 9.733 2 15l-.5 11c-.278.916-.778 1.582-1.5 2a68.673 68.673 0 0 0 0-23v-5Z"/><path style="opacity:.004" fill="#fdffe9" d="M118.5 168.5c1.333.667 1.333.667 0 0Z"/><path style="opacity:1" fill="#d9c4a3" d="M124.5 169.5h3c-.76 2.485-1.76 2.485-3 0Z"/><path style="opacity:1" fill="#cda86c" d="M181.5 148.5a102.18 102.18 0 0 1 12.5 20 96.55 96.55 0 0 0 23.5 15c1.112.765 1.779 1.765 2 3-9.288-4.402-18.122-9.736-26.5-16a123.321 123.321 0 0 0-11-18 8.43 8.43 0 0 1-.5-4Z"/><path style="opacity:1" fill="#d4b582" d="M847.5 164.5c1.15 4.816 1.316 9.816.5 15-.24 2.352-1.073 4.352-2.5 6 1.56-5.8 2.226-11.8 2-18v-3Z"/><path style="opacity:1" fill="#cfaf75" d="M133.5 163.5c-2.145 11.816.522 22.149 8 31a18.924 18.924 0 0 0 3 5c-2.569-.896-4.569-2.562-6-5-6.347-9.741-8.013-20.075-5-31Z"/><path style="opacity:1" fill="#b59767" d="M829.5 179.5c-1.162 9.404 2.838 12.738 12 10-4.34 2.631-8.673 2.298-13-1-.833-3.158-.499-6.158 1-9Z"/><path style="opacity:1" fill="#e39c24" d="M827.5 135.5c4.321.123 4.988 1.623 2 4.5 2.898 13.319 3.731 26.819 2.5 40.5-2.065 2.545-1.898 4.879.5 7 2.606 1.152 5.273 1.318 8 .5-.951-.718-1.117-1.551-.5-2.5 1.011.837 2.178 1.17 3.5 1v2l-2 1c-9.162 2.738-13.162-.596-12-10 .722-.418 1.222-1.084 1.5-2l.5-11c.213-5.267-.454-10.267-2-15a71.65 71.65 0 0 0-2-16Z"/><path style="opacity:.004" fill="#e5cdab" d="M845.5 185.5c.073 1.527-.594 2.527-2 3v-2c.342-.838 1.008-1.172 2-1Z"/><path style="opacity:1" fill="#d4a85e" d="M219.5 186.5c4 3 4 6 0 9-1.88-.271-3.213.396-4 2-1.802.958-3.802 1.625-6 2a29.087 29.087 0 0 1 5-4c1.545-.952 3.212-1.285 5-1v-8Z"/><path style="opacity:.043" fill="#dacfa7" d="M219.5 195.5c-1.014 1.174-2.347 1.84-4 2 .787-1.604 2.12-2.271 4-2Z"/><path style="opacity:1" fill="#cc9b4b" d="M141.5 194.5a120.494 120.494 0 0 0 15 11c-4.629-.981-8.629-2.981-12-6a18.924 18.924 0 0 1-3-5Z"/><path style="opacity:1" fill="#d2b780" d="M209.5 199.5c-2.157.907-4.49 1.573-7 2 1.779-1.844 4.112-2.51 7-2Z"/><path style="opacity:1" fill="#e0c892" d="M201.5 201.5c-4.986 2.201-10.32 3.201-16 3v-1a83.16 83.16 0 0 1 16-2Z"/><path style="opacity:1" fill="#c38b3d" d="M185.5 203.5v1h-4a72.032 72.032 0 0 1-11 1c.111-.617.444-1.117 1-1.5a98.432 98.432 0 0 1 14-.5Z"/><path style="opacity:1" fill="#fffbcc" d="M367.5 204.5h-20c1.124-1.309 2.624-1.975 4.5-2 3.394 1.16 6.727 1.16 10 0a61.16 61.16 0 0 1 5.5 2Z"/><path style="opacity:.078" fill="#f2e9cd" d="M537.5 204.5c1.101-1.098 2.434-1.265 4-.5 1.274.977 1.274 1.811 0 2.5-.787-1.604-2.12-2.271-4-2Z"/><path style="opacity:1" fill="#fffccc" d="M674.5 204.5h-19c2.517-1.473 5.35-2.14 8.5-2 2.812.511 5.478.511 8 0 .995.566 1.828 1.233 2.5 2Z"/><path style="opacity:1" fill="#cfb486" d="M512.5 206.5c-1.208-.734-2.541-1.067-4-1v3c-2.082-1.085-2.416-2.585-1-4.5 2.762-1.077 4.428-.244 5 2.5Z"/><path style="opacity:.031" fill="#f5ecd0" d="M676.5 205.5v-1c2.51-.446 4.51.22 6 2a19.22 19.22 0 0 0-6-1Z"/><path style="opacity:.013" fill="#ede1c0" d="M181.5 204.5c-.763.768-1.763 1.268-3 1.5-7.512.822-14.845.655-22-.5h14a72.032 72.032 0 0 0 11-1Z"/><path style="opacity:1" fill="#e29e28" d="M349.5 204.5h19a31.147 31.147 0 0 0 2 2c-.457.798-1.124 1.131-2 1h-17v34h17c.876-.131 1.543.202 2 1a31.147 31.147 0 0 0-2 2h-19a200.55 200.55 0 0 1 0-40Z"/><path style="opacity:1" fill="#a9884d" d="M347.5 204.5h2a200.55 200.55 0 0 0 0 40h-2c-.019-13.358-.019-26.691 0-40Z"/><path style="opacity:1" fill="#e6cda3" d="M512.5 206.5c1.406.473 2.073 1.473 2 3-1.406-.473-2.073-1.473-2-3Z"/><path style="opacity:1" fill="#c88e2e" d="M512.5 206.5c-.073 1.527.594 2.527 2 3 1.237 1.465 2.237 3.132 3 5 .285 1.788-.048 3.455-1 5a109.578 109.578 0 0 0-6-10 43.836 43.836 0 0 0-2-1v-3c1.459-.067 2.792.266 4 1Z"/><path style="opacity:1" fill="#a98b61" d="M241.5 208.5c3.332 9.322 6.665 18.655 10 28a2.428 2.428 0 0 1-.5 2c-4.248-9.582-7.415-19.582-9.5-30Z"/><path style="opacity:1" fill="#b79a6b" d="M687.5 217.5c-2.448-3.936-5.948-6.602-10.5-8a76.326 76.326 0 0 0-16.5-1v32h15c.667 0 1 .333 1 1h-17v-34c6.7-.33 13.366.003 20 1 4.744 1.156 7.411 4.156 8 9Z"/><path style="opacity:1" fill="#fffad1" d="M558.5 214.5h-4c1.333-2.667 2.667-2.667 4 0Z"/><path style="opacity:1" fill="#fffbd7" d="M605.5 214.5h-3c1.24-2.485 2.24-2.485 3 0Z"/><path style="opacity:1" fill="#fffbcd" d="M704.5 214.5h-3c.76-2.485 1.76-2.485 3 0Z"/><path style="opacity:1" fill="#fefad8" d="M737.5 214.5h-6c2-2.667 4-2.667 6 0Z"/><path style="opacity:1" fill="#ab946c" d="m368.5 207.5 1 2a84.118 84.118 0 0 0-17-1v32h16v1h-17v-34h17Z"/><path style="opacity:1" fill="#d1b98c" d="M447.5 215.5c-.617.111-1.117.444-1.5 1a18.453 18.453 0 0 0-.5 6c-1.17-2.15-2.17-4.484-3-7 1.706-3.967 3.373-3.967 5 0Z"/><path style="opacity:1" fill="#cba96c" d="M809.5 215.5a31.116 31.116 0 0 0-11 1 34.251 34.251 0 0 0 8 1.5c.556.383.889.883 1 1.5-5.537-2.169-9.87-.836-13 4-1.276-2.836-1.942-5.836-2-9h-3c-.131-.876.202-1.543 1-2 2.05.577 3.05 1.91 3 4a55.03 55.03 0 0 1 10-3c2.217.378 4.217 1.045 6 2Z"/><path style="opacity:1" fill="#bd975b" d="M479.5 236.5c-.061 4.822-1.227 5.155-3.5 1-.92 3.494.246 5.827 3.5 7-1.042 1.291-2.208 1.291-3.5 0a163.802 163.802 0 0 1-9-22 1758.123 1758.123 0 0 0-7 19 81.316 81.316 0 0 1-2.5 3h-3c-1.431-1.403-2.598-3.069-3.5-5a168.66 168.66 0 0 0-5.5-17 18.453 18.453 0 0 1 .5-6c.383-.556.883-.889 1.5-1a97.744 97.744 0 0 1 8 22v2c-.875-2.068-2.041-4.068-3.5-6l-.5 2.5a53.631 53.631 0 0 1 2.5 6.5c1.011.837 2.178 1.17 3.5 1 1.314-3.604 2.647-7.27 4-11l-.5-2c-.876 2.258-2.043 4.258-3.5 6a5.727 5.727 0 0 1 1-3 501.66 501.66 0 0 1 5.5-17c1.478-3.493 3.478-3.826 6-1l7 19c.417 1.256 1.25 1.923 2.5 2Z"/><path style="opacity:1" fill="#df9d27" d="m563.5 215.5 2 4h-4c-.111-.617-.444-1.117-1-1.5-3.528-.089-6.862-.756-10-2a84.902 84.902 0 0 1 13-.5Z"/><path style="opacity:1" fill="#af8f63" d="M655.5 204.5h1v40c-.722-.418-1.222-1.084-1.5-2a246.01 246.01 0 0 1 .5-38Z"/><path style="opacity:1" fill="#d59c3e" d="M656.5 204.5h20v1a88.665 88.665 0 0 0-18.5 1 684.346 684.346 0 0 0-.5 37h19v1h-20v-40Z"/><path style="opacity:1" fill="#e69e21" d="M676.5 205.5a19.22 19.22 0 0 1 6 1c.667 0 1 .333 1 1 7.296 6.312 9.796 14.312 7.5 24-2.244 4.223-3.41 3.889-3.5-1-.172-.992.162-1.658 1-2 1.141-3.14 1.308-6.473.5-10-.383-.556-.883-.889-1.5-1-.589-4.844-3.256-7.844-8-9-6.634-.997-13.3-1.33-20-1v34h17c2.667.667 2.667 1.333 0 2h-19c-.167-12.338 0-24.671.5-37a88.665 88.665 0 0 1 18.5-1Z"/><path style="opacity:1" fill="#c19e6b" d="M711.5 218.5a44.093 44.093 0 0 1 3-2c-2.616-.886-4.949-.22-7 2 .457.798 1.124 1.131 2 1a6.547 6.547 0 0 1-3 3 23.142 23.142 0 0 1-2-8 31.147 31.147 0 0 1 2 2c3.024-2.081 6.19-2.747 9.5-2a8.43 8.43 0 0 1 .5 4h-5Z"/><path style="opacity:1" fill="#c8a56c" d="M772.5 215.5a72.367 72.367 0 0 0-12 .5 18.924 18.924 0 0 0-5 3 8.43 8.43 0 0 0 4 .5c-2.034 2.703-3.701 2.537-5-.5 1.02-2.026 2.687-3.359 5-4 4.568-2.122 8.902-1.955 13 .5Z"/><path style="opacity:1" fill="#c5a067" d="M431.5 215.5a36.875 36.875 0 0 0-12 1c3.477.667 6.811 1.334 10 2-4.704-.538-9.038.462-13 3a6.547 6.547 0 0 1-3-3 31.922 31.922 0 0 1 12.5-6 86.818 86.818 0 0 0 5.5 3Z"/><path style="opacity:1" fill="#c7a162" d="M828.5 214.5c-2.971-.065-5.638.769-8 2.5l10 1c.556.383.889.883 1 1.5l-4-1a18.453 18.453 0 0 0-6 .5 19.552 19.552 0 0 1-4 3.5v-3c-3.759.542-6.426-.792-8-4 1.894.548 3.56 1.548 5 3 4.135-3.862 8.801-5.196 14-4Z"/><path style="opacity:1" fill="#dd9b29" d="M828.5 214.5h1a26.505 26.505 0 0 1 4 4.5c-.336 1.03-1.003 1.53-2 1.5v-1c-.111-.617-.444-1.117-1-1.5l-10-1c2.362-1.731 5.029-2.565 8-2.5Z"/><path style="opacity:1" fill="#df9d26" d="M865.5 215.5v3h-4a624.355 624.355 0 0 0-10-2 49.87 49.87 0 0 1 14-1Z"/><path style="opacity:1" fill="#9d8c6d" d="M404.5 218.5a44.093 44.093 0 0 1 3-2 9.86 9.86 0 0 0-6-1c2.567-1.809 5.233-1.975 8-.5-.837 1.011-1.17 2.178-1 3.5h-4Z"/><path style="opacity:1" fill="#c2a06e" d="M563.5 215.5c4.502 1.838 7.169 5.172 8 10-.667 0-1 .333-1 1-.802-1.452-1.302-3.118-1.5-5-.816-1.323-1.983-1.989-3.5-2l-2-4Z"/><path style="opacity:1" fill="#5d4520" d="M605.5 214.5c.679 8.735 1.346 17.568 2 26.5a19.602 19.602 0 0 1-2 3.5v-30Z"/><path style="opacity:1" fill="#dda344" d="M711.5 218.5c-.342.838-1.008 1.172-2 1-.876.131-1.543-.202-2-1 2.051-2.22 4.384-2.886 7-2a44.093 44.093 0 0 0-3 2Z"/><path style="opacity:1" fill="#d49b44" d="M742.5 221.5c-7.92-5.127-13.92-3.46-18 5v1c-1.205-1.172-1.205-2.505 0-4-.457-.798-1.124-1.131-2-1a18.33 18.33 0 0 1 4-6c7.151-2.2 13.484-.866 19 4-.825.886-1.825 1.219-3 1Z"/><path style="opacity:1" fill="#c2a677" d="M865.5 215.5c4.126 1.79 3.959 3.457-.5 5-1.459-.308-2.626-.975-3.5-2h4v-3Z"/><path style="opacity:1" fill="#d5ad6a" d="M537.5 204.5c1.88-.271 3.213.396 4 2-.453 2.065-1.453 3.732-3 5a163.324 163.324 0 0 1-9 15c2.574-8.748 1.574-9.081-3-1-1.725 1.592-2.725 1.258-3-1 .996.086 1.829-.248 2.5-1a400.458 400.458 0 0 1 11.5-19Z"/><path style="opacity:1" fill="#c58824" d="M538.5 211.5c-1.757.792-3.091 2.125-4 4l-1-2c1.827-1.987 2.827-4.321 3-7h3a20.69 20.69 0 0 1-1 5Z"/><path style="opacity:1" fill="#c9a05d" d="M554.5 214.5h4c1.915-.284 3.581.049 5 1a84.902 84.902 0 0 0-13 .5c3.138 1.244 6.472 1.911 10 2 .556.383.889.883 1 1.5-5.777-2.05-10.443-.717-14 4a12.93 12.93 0 0 0-.5-5 14.698 14.698 0 0 1-3.5 3c2.179-4.594 5.846-6.927 11-7Z"/><path style="opacity:1" fill="#d59b3b" d="M628.5 218.5c-.342.838-1.008 1.172-2 1-3.396-.133-3.729-1.133-1-3 2-1.333 4-1.333 6 0a44.093 44.093 0 0 0-3 2Z"/><path style="opacity:1" fill="#fef5d0" d="M760.5 219.5c.709-.904 1.709-1.237 3-1-.605 1.981-1.605 2.315-3 1Z"/><path style="opacity:1" fill="#d59c3f" d="M323.5 223.5v7h-23c7.178-.667 14.511-1.333 22-2-.457-.798-1.124-1.131-2-1 .172-.992-.162-1.658-1-2-1.31-2.973-3.31-5.307-6-7-.949-.652-2.115-.986-3.5-1-2.008-.193-3.508.474-4.5 2h-1c-2.049-.206-2.383-1.039-1-2.5 8.331-2.584 14.997-.417 20 6.5Z"/><path style="opacity:1" fill="#c79e5a" d="M508.5 208.5c.65.304 1.317.637 2 1a109.578 109.578 0 0 1 6 10c.952-1.545 1.285-3.212 1-5 1.75 1.159 2.75 2.826 3 5-.073 1.527.594 2.527 2 3l1 2c-1.517-.011-2.684-.677-3.5-2-.57 5.489 1.93 7.823 7.5 7a646.012 646.012 0 0 1-2 15h-3c.319-4.863-.014-9.53-1-14-1.39-1.399-2.39-3.066-3-5 .073-1.527-.594-2.527-2-3a72.759 72.759 0 0 1-8-14Z"/><path style="opacity:1" fill="#b99562" d="M561.5 219.5h4c1.324 4.351 2.991 8.351 5 12-.172.992.162 1.658 1 2-.296 1.903-.963 3.57-2 5-.272-7.684-1.605-7.684-4 0 .825.886 1.825 1.219 3 1-1.085 2.087-2.751 3.42-5 4 2.833-2.559 2.166-3.892-2-4 7.54-6.795 7.54-13.462 0-20Z"/><path style="opacity:1" fill="#e8d5a3" d="M769.5 218.5c1.527-.073 2.527.594 3 2-1.527.073-2.527-.594-3-2Z"/><path style="opacity:1" fill="#e09d35" d="M809.5 215.5c1.574 3.208 4.241 4.542 8 4v3c-1.676.683-2.343 2.017-2 4a5.727 5.727 0 0 1-3 1c-.545-3.672-.878-3.338-1 1-.951-1.419-1.284-3.085-1-5-.054-2.132-1.054-3.465-3-4-.111-.617-.444-1.117-1-1.5a34.251 34.251 0 0 1-8-1.5 31.116 31.116 0 0 1 11-1Z"/><path style="opacity:.008" fill="#f7edcb" d="m827.5 218.5 4 1v1c-1.88.271-3.213-.396-4-2Z"/><path style="opacity:1" fill="#d39f49" d="M829.5 214.5c4.667.667 7.333 3.333 8 8v2c-.722-.418-1.222-1.084-1.5-2-.5 6.992-.666 13.992-.5 21a196.99 196.99 0 0 1-1.5-20c-.383-.556-.883-.889-1.5-1-.838-.342-1.172-1.008-1-2 .997.03 1.664-.47 2-1.5a26.505 26.505 0 0 0-4-4.5Z"/><path style="opacity:1" fill="#ba9863" d="M323.5 223.5c-5.003-6.917-11.669-9.084-20-6.5-1.383 1.461-1.049 2.294 1 2.5l-4 5h-1c.203-1.544.87-2.878 2-4l-1-1c-5.792 8.21-5.125 15.877 2 23-1.871-.359-3.371-1.359-4.5-3l-3.5-7a68.17 68.17 0 0 1 3.5-15l1 1c7.969-6.591 15.635-6.258 23 1a10.134 10.134 0 0 1 1.5 4Z"/><path style="opacity:1" fill="#a89365" d="M313.5 218.5a41.541 41.541 0 0 0-8 1c.992-1.526 2.492-2.193 4.5-2 1.385.014 2.551.348 3.5 1Z"/><path style="opacity:1" fill="#caad7e" d="M617.5 214.5c.751-1.073 1.751-1.24 3-.5.498 1.158 1.331 1.991 2.5 2.5 2.845-2.1 5.845-2.767 9-2a8.43 8.43 0 0 1 .5 4h-4a44.093 44.093 0 0 1 3-2c-2-1.333-4-1.333-6 0-2.729 1.867-2.396 2.867 1 3-1.636 1.249-2.803 2.916-3.5 5a177.566 177.566 0 0 1-1.5 19v-17c.019-1.56.352-3.06 1-4.5-1.433-2.736-2.766-2.902-4-.5.302-2.559-.032-4.893-1-7Z"/><path style="opacity:1" fill="#f8e3c1" d="M520.5 219.5c1.406.473 2.073 1.473 2 3-1.406-.473-2.073-1.473-2-3Z"/><path style="opacity:.004" fill="#efe1c7" d="M807.5 219.5c1.946.535 2.946 1.868 3 4-1.474-.936-2.474-2.27-3-4Z"/><path style="opacity:1" fill="#a58959" d="M583.5 214.5h-3v17h-1a78.518 78.518 0 0 1 0-18c1.599-.268 2.932.066 4 1Z"/><path style="opacity:1" fill="#e49f27" d="M603.5 214.5h2v30h-2c.34-2.644-.327-4.977-2-7l1.5-3c.5-6.658.666-13.325.5-20Z"/><path style="opacity:1" fill="#e09f2e" d="M465.5 216.5c1.322-.17 2.489.163 3.5 1 1.718 2.591 2.218 5.258 1.5 8a48.165 48.165 0 0 1-2.5-5 14.972 14.972 0 0 0-3.5 3l-1-1c1.247-1.823 1.914-3.823 2-6Z"/><path style="opacity:1" fill="#c89842" d="M487.5 225.5a31.686 31.686 0 0 1-2 6c-.891-.761-1.558-1.761-2-3 1.366-4.617 3.199-8.95 5.5-13a49.923 49.923 0 0 1-1.5 10Z"/><path style="opacity:1" fill="#876a38" d="M687.5 217.5c.617.111 1.117.444 1.5 1 .808 3.527.641 6.86-.5 10a72.032 72.032 0 0 0-1-11Z"/><path style="opacity:1" fill="#d49b31" d="M447.5 222.5c3.013 2.362 4.013 5.362 3 9-1.865-2.726-2.865-5.726-3-9Z"/><path style="opacity:.043" fill="#faebcc" d="M516.5 222.5c1.406.473 2.073 1.473 2 3-1.406-.473-2.073-1.473-2-3Z"/><path style="opacity:1" fill="#d99b2a" d="M547.5 223.5c-1.604.787-2.271 2.12-2 4-1.808-1.418-2.475-3.418-2-6a14.698 14.698 0 0 0 3.5-3 12.93 12.93 0 0 1 .5 5Z"/><path style="opacity:1" fill="#e2a226" d="M621.5 226.5c-1.4-.6-2.4-1.6-3-3v-2c1.234-2.402 2.567-2.236 4 .5a11.187 11.187 0 0 0-1 4.5Z"/><path style="opacity:1" fill="#be9f6a" d="M271.5 216.5c-1.827-3.709-3.994-7.375-6.5-11-2.171 1.278-3.338 3.278-3.5 6 .863 2.372 2.029 2.372 3.5 0a347.094 347.094 0 0 1 9.5 24 13.116 13.116 0 0 0 1-7 73.972 73.972 0 0 0 3 7 124.96 124.96 0 0 1 4-10h1a47.127 47.127 0 0 1-5 14l-2.5-3c-1.423 4.714.077 6.714 4.5 6a194.104 194.104 0 0 1 7-21l-1-2c-.565 2.044-1.565 3.71-3 5l1-4a72.876 72.876 0 0 1 5-16c2.047-1.404 3.714-1.071 5 1a75.83 75.83 0 0 0-3 7 1030.204 1030.204 0 0 0-9.5 31c-.383.556-.883.889-1.5 1h-5a1689.324 1689.324 0 0 1-10.5-31 666.402 666.402 0 0 1-9.5 25 18.453 18.453 0 0 0-.5-6c-.949 1.593-2.115 2.926-3.5 4 .962-3.895 2.296-7.561 4-11a387.26 387.26 0 0 1 7-21c1.506-1.247 3.006-1.247 4.5 0a35.448 35.448 0 0 1 4.5 12Z"/><path style="opacity:.004" fill="#ece1c9" d="m284.5 220.5-1 4v1h-1c-.38-2.198.287-3.865 2-5Z"/><path style="opacity:1" fill="#d49733" d="M255.5 225.5a122.126 122.126 0 0 1 5-10l1 2a146.071 146.071 0 0 1-5 14 9.86 9.86 0 0 1-1-6Z"/><path style="opacity:1" fill="#d39934" d="M271.5 216.5c1.343 4.014 2.676 8.014 4 12a13.116 13.116 0 0 1-1 7 347.094 347.094 0 0 0-9.5-24c-1.471 2.372-2.637 2.372-3.5 0 .162-2.722 1.329-4.722 3.5-6 2.506 3.625 4.673 7.291 6.5 11Z"/><path style="opacity:1" fill="#e39927" d="M287.5 213.5c1.086.12 1.753.787 2 2l-1 2c-.929-1.189-1.262-2.522-1-4Z"/><path style="opacity:1" fill="#d59e2c" d="M291.5 212.5h-3c1.538-7.833 2.538-7.833 3 0Z"/><path style="opacity:1" fill="#dba042" d="M583.5 214.5c.991 6.813 1.325 13.813 1 21-.262 1.478.071 2.811 1 4 2.01 1.002 4.01 2.002 6 3-1.545.952-3.212 1.285-5 1-4.093-2.852-6.093-6.852-6-12v-17h3Z"/><path style="opacity:1" fill="#95764b" d="M617.5 214.5c.968 2.107 1.302 4.441 1 7v23c-1.328-4.619-1.994-9.619-2-15 .001-5.178.334-10.178 1-15Z"/><path style="opacity:1" fill="#fbf5ce" d="M299.5 224.5h1c2.758 1.318 5.924 1.985 9.5 2 3.352-.002 6.518-.335 9.5-1 .838.342 1.172 1.008 1 2h-21v-3Z"/><path style="opacity:1" fill="#b19767" d="M430.5 219.5c1.517.011 2.684.677 3.5 2 .495 1.973.662 3.973.5 6h-16c4.482-.826 9.149-1.326 14-1.5a3.647 3.647 0 0 0 1-1.5 18.67 18.67 0 0 0-3-5Z"/><path style="opacity:1" fill="#cb8e23" d="M529.5 226.5c-.432 1.21-1.099 2.21-2 3-5.57.823-8.07-1.511-7.5-7 .816 1.323 1.983 1.989 3.5 2 .275 2.258 1.275 2.592 3 1 4.574-8.081 5.574-7.748 3 1Z"/><path style="opacity:1" fill="#bda47e" d="M773.5 226.5c-4.134.985-8.468 1.318-13 1a5.727 5.727 0 0 0-3 1c4.896-1.946 10.229-2.613 16-2Z"/><path style="opacity:1" fill="#cab48b" d="M789.5 214.5v29c.709.904 1.709 1.237 3 1-.166-6.675 0-13.342.5-20 .383-.556.883-.889 1.5-1-1.109 7-1.275 14-.5 21-1.194 2.025-2.694 2.359-4.5 1-1.323-10.493-1.323-20.826 0-31Z"/><path style="opacity:1" fill="#d49f3a" d="M789.5 214.5h3c.058 3.164.724 6.164 2 9-.617.111-1.117.444-1.5 1-.5 6.658-.666 13.325-.5 20-1.291.237-2.291-.096-3-1 1.706-6.64 2.706-13.64 3-21a38.852 38.852 0 0 1-1.5-7c-.21 1.558-.71 2.891-1.5 4v-5Z"/><path style="opacity:1" fill="#d1b58b" d="M432.5 215.5c2.961.893 4.794 2.893 5.5 6 .822 7.845.656 15.511-.5 23 .166-7.008 0-14.008-.5-21-.864-3.164-2.364-5.831-4.5-8Z"/><path style="opacity:1" fill="#d8a137" d="M565.5 219.5c1.517.011 2.684.677 3.5 2 .198 1.882.698 3.548 1.5 5v5c-2.009-3.649-3.676-7.649-5-12Z"/><path style="opacity:1" fill="#8e744b" d="M772.5 215.5c2.915.413 4.748 2.079 5.5 5 .823 8.177.656 16.177-.5 24 .545-9.213-.121-18.213-2-27-1.679.215-2.679-.452-3-2Z"/><path style="opacity:1" fill="#e19c28" d="M431.5 215.5h1c2.136 2.169 3.636 4.836 4.5 8 .5 6.992.666 13.992.5 21-.992.172-1.658-.162-2-1-.124-2.082-1.124-3.582-3-4.5 2.173-2.698 2.506-5.531 1-8.5-5.558-.499-10.892.167-16 2a31.642 31.642 0 0 1-3 5c-.952-1.545-1.285-3.212-1-5 2-1.333 3.667-3 5-5h16a18.453 18.453 0 0 0-.5-6c-.816-1.323-1.983-1.989-3.5-2-.667 0-1-.333-1-1a624.355 624.355 0 0 0-10-2 36.875 36.875 0 0 1 12-1Zm-8 21c.577-1.273 1.243-1.273 2 0-.47.963-1.137.963-2 0Z"/><path style="opacity:1" fill="#e39f2a" d="M722.5 222.5c.876-.131 1.543.202 2 1-1.205 1.495-1.205 2.828 0 4h21c-.262-1.478.071-2.811 1-4a13.116 13.116 0 0 1 1 7h-24c-.237 1.291.096 2.291 1 3l1 2c-.768.763-1.268 1.763-1.5 3-3.718-5.073-4.218-10.407-1.5-16Z"/><path style="opacity:1" fill="#df9c2b" d="M772.5 215.5c.321 1.548 1.321 2.215 3 2 1.879 8.787 2.545 17.787 2 27h-2c-.665-4.807-.999-9.474-1-14-4.816-.826-9.816-1.326-15-1.5.556-.383.889-.883 1-1.5 4.532.318 8.866-.015 13-1a19.22 19.22 0 0 0-1-6c-.473-1.406-1.473-2.073-3-2h-6c-1.291-.237-2.291.096-3 1h-1a8.43 8.43 0 0 1-4-.5 18.924 18.924 0 0 1 5-3 72.367 72.367 0 0 1 12-.5Z"/><path style="opacity:1" fill="#e99e1b" d="M789.5 243.5v-24c.79-1.109 1.29-2.442 1.5-4a38.852 38.852 0 0 0 1.5 7c-.294 7.36-1.294 14.36-3 21Z"/><path style="opacity:1" fill="#dc9d2c" d="M241.5 208.5c2.085 10.418 5.252 20.418 9.5 30a2.428 2.428 0 0 0 .5-2c1.385-1.074 2.551-2.407 3.5-4 .495 1.973.662 3.973.5 6-1.447 1.122-2.447 2.622-3 4.5-1.284.684-2.451.517-3.5-.5a1449.333 1449.333 0 0 0-11.5-35l1-2c.788 1.27 1.788 2.27 3 3Z"/><path style="opacity:1" fill="#ca9e53" d="M401.5 215.5a9.86 9.86 0 0 1 6 1 44.093 44.093 0 0 0-3 2 37.84 37.84 0 0 0-5.5 5 244.83 244.83 0 0 1-1.5 21h-3v-30c.709-.904 1.709-1.237 3-1 .108 4.166 1.441 4.833 4 2Z"/><path style="opacity:1" fill="#b08a60" d="M418.5 227.5c-1.333 2-3 3.667-5 5 .667-2.667 2.333-4.333 5-5Z"/><path style="opacity:1" fill="#aa8950" d="M571.5 225.5c1.333 2.667 1.333 5.333 0 8-.838-.342-1.172-1.008-1-2v-5c0-.667.333-1 1-1Z"/><path style="opacity:1" fill="#cb963f" d="M760.5 227.5c-.111.617-.444 1.117-1 1.5 5.184.174 10.184.674 15 1.5-4.532-.318-8.866.015-13 1l-2 1c-1.756 1.052-2.423 2.719-2 5-.876-.131-1.543.202-2 1l2 4h-1c-1.406-.473-2.073-1.473-2-3-.734-1.208-1.067-2.541-1-4-.424-3.502.91-5.835 4-7a5.727 5.727 0 0 1 3-1Z"/><path style="opacity:.011" fill="#eedfc8" d="M817.5 222.5c-.634 7.1-1.301 14.1-2 21v-17c-.343-1.983.324-3.317 2-4Z"/><path style="opacity:1" fill="#dfcda7" d="M837.5 222.5c.992 7.482 1.325 15.148 1 23-1.915.284-3.581-.049-5-1 1.599.268 2.932-.066 4-1v-21Z"/><path style="opacity:1" fill="#e09d29" d="M283.5 225.5v-1c1.435-1.29 2.435-2.956 3-5l1 2a194.104 194.104 0 0 0-7 21c-4.423.714-5.923-1.286-4.5-6l2.5 3a47.127 47.127 0 0 0 5-14Z"/><path style="opacity:1" fill="#a58650" d="M323.5 223.5c.973 2.448 1.306 5.115 1 8-7.674-.166-15.341 0-23 .5-1.184 1.145-1.184 2.312 0 3.5v1c-1.447-.634-2.113-1.801-2-3.5.028-1.07.361-1.903 1-2.5h23v-7Z"/><path style="opacity:1" fill="#dac4a1" d="M547.5 223.5a29.23 29.23 0 0 0-1 9c-.951-1.419-1.284-3.085-1-5-.271-1.88.396-3.213 2-4Z"/><path style="opacity:1" fill="#d2ba8d" d="M701.5 214.5c-.332 9.69.002 19.356 1 29a3.647 3.647 0 0 0 1.5-1c.08-6.58.914-12.913 2.5-19-1.269 5.874-1.269 11.541 0 17a18.099 18.099 0 0 1-2 5.5c-1.284.684-2.451.517-3.5-.5-.825-10.508-.659-20.842.5-31Z"/><path style="opacity:1" fill="#c4a671" d="M731.5 214.5h6c3.218.476 6.052 1.809 8.5 4 2.26 4.04 3.427 8.373 3.5 13-7.24.201-14.573.201-22 0-1.679-.215-2.679.452-3 2-.904-.709-1.237-1.709-1-3h24a13.116 13.116 0 0 0-1-7c-.929 1.189-1.262 2.522-1 4h-21v-1c6.675.166 13.342 0 20-.5a39.064 39.064 0 0 1-2-4.5c1.175.219 2.175-.114 3-1-5.516-4.866-11.849-6.2-19-4 1.135-1.713 2.802-2.38 5-2Z"/><path style="opacity:1" fill="#faf2c6" d="M761.5 231.5c4.134-.985 8.468-1.318 13-1 .284 1.915-.049 3.581-1 5v-4c-3.749.877-7.749.877-12 0Z"/><path style="opacity:.008" fill="#faf5d7" d="M727.5 231.5c-.418.722-1.084 1.222-2 1.5.837 1.011 1.17 2.178 1 3.5-.667 0-1-.333-1-1l-1-2c.321-1.548 1.321-2.215 3-2Z"/><path style="opacity:1" fill="#bda171" d="M832.5 222.5c.617.111 1.117.444 1.5 1a196.99 196.99 0 0 0 1.5 20h2c-1.068.934-2.401 1.268-4 1a125.511 125.511 0 0 0-1-22Z"/><path style="opacity:1" fill="#96764a" d="M394.5 214.5v30c-1.327-4.451-1.994-9.284-2-14.5l.5-14.5c.383-.556.883-.889 1.5-1Z"/><path style="opacity:1" fill="#e09c2a" d="M701.5 214.5h3c.193 2.808.86 5.475 2 8v1c-1.586 6.087-2.42 12.42-2.5 19a3.647 3.647 0 0 1-1.5 1 211.151 211.151 0 0 1-1-29Z"/><path style="opacity:1" fill="#c59a59" d="M368.5 204.5c4.67.373 8.337 2.373 11 6 3.2 2.021 5.034 5.021 5.5 9 1.759 11.317-2.408 19.484-12.5 24.5a8.43 8.43 0 0 1-4 .5 31.147 31.147 0 0 1 2-2c-.457-.798-1.124-1.131-2-1v-1c11.309-5.079 14.476-13.412 9.5-25-2.671-2.402-5.505-4.402-8.5-6l-1-2c.876.131 1.543-.202 2-1a31.147 31.147 0 0 1-2-2Z"/><path style="opacity:1" fill="#e49e26" d="M379.5 210.5c3.804 6.447 4.97 13.447 3.5 21a7.293 7.293 0 0 1-2 3c.328-4.975.328-9.975 0-15-.605-3.322-2.105-6.155-4.5-8.5a4.934 4.934 0 0 1 3-.5Z"/><path style="opacity:1" fill="#b18743" d="M815.5 226.5v18h-3v-17a5.727 5.727 0 0 0 3-1Z"/><path style="opacity:1" fill="#e89e22" d="M837.5 224.5v19h-2c-.166-7.008 0-14.008.5-21 .278.916.778 1.582 1.5 2Z"/><path style="opacity:.024" fill="#fcfcf4" d="M433.5 230.5c.841 4.075-.492 7.075-4 9-3.708 1.414-7.375 1.247-11-.5-.923-2.041-1.256-4.208-1-6.5 5.108-1.833 10.442-2.499 16-2Zm-10 6c.863.963 1.53.963 2 0-.757-1.273-1.423-1.273-2 0Z"/><path style="opacity:1" fill="#fad8ab" d="M521.5 230.5c.986 4.47 1.319 9.137 1 14-.934-1.272-1.601-2.772-2-4.5a28.496 28.496 0 0 0 1-9.5Z"/><path style="opacity:1" fill="#c1881b" d="M523.5 230.5c1.3 1.723 1.967 3.89 2 6.5l-1 6.5a43.117 43.117 0 0 1-1-13Z"/><path style="opacity:1" fill="#c9a05b" d="M683.5 207.5c4.158 1.575 6.991 4.575 8.5 9 4.425 14.828-.742 24.161-15.5 28v-1c2.667-.667 2.667-1.333 0-2 0-.667-.333-1-1-1 5.504-1.502 9.504-4.836 12-10 .09 4.889 1.256 5.223 3.5 1 2.296-9.688-.204-17.688-7.5-24Z"/><path style="opacity:1" fill="#c0a273" d="M241.5 208.5c-1.212-.73-2.212-1.73-3-3l-1 2a1449.333 1449.333 0 0 1 11.5 35c1.049 1.017 2.216 1.184 3.5.5.553-1.878 1.553-3.378 3-4.5-.058 3.123-1.392 5.456-4 7-1.83-.08-3.163-.913-4-2.5a67645.524 67645.524 0 0 0-12-37c.454-1.622 1.454-2.788 3-3.5 1.751 1.564 2.751 3.564 3 6Z"/><path style="opacity:1" fill="#c09c65" d="M487.5 225.5a49.923 49.923 0 0 0 1.5-10c-2.301 4.05-4.134 8.383-5.5 13 .442 1.239 1.109 2.239 2 3a114.877 114.877 0 0 1-5 13 19.048 19.048 0 0 1 1-6c-.247-1.213-.914-1.88-2-2a295.727 295.727 0 0 1 7.5-22c1.356-.88 2.856-1.214 4.5-1-.125 4.539-1.458 8.539-4 12Z"/><path style="opacity:1" fill="#d0ba95" d="M541.5 225.5c-.146 6.706 2.188 12.373 7 17-3.879-1.706-6.379-4.706-7.5-9-.801-2.867-.634-5.534.5-8Z"/><path style="opacity:1" fill="#d59835" d="M569.5 238.5c0 .667-.333 1-1 1-1.175.219-2.175-.114-3-1 2.395-7.684 3.728-7.684 4 0Z"/><path style="opacity:1" fill="#cca86d" d="M865.5 215.5a49.87 49.87 0 0 0-14 1c3.477.667 6.811 1.334 10 2-3.554-.35-6.888.316-10 2-1.114 1.223-1.281 2.556-.5 4 4.579 2.025 9.413 3.525 14.5 4.5l4.5 4.5c.264 3.039-.569 5.706-2.5 8 2.05-8.943-1.284-12.61-10-11 3.935.127 6.602 1.961 8 5.5.007 1.812-.66 3.312-2 4.5-5.911 1.091-11.578 1.091-17 0a12.403 12.403 0 0 0 4 2.5c4.321.499 8.654.666 13 .5-.709.904-1.709 1.237-3 1h-6c-3.393.438-6.393-.395-9-2.5-1.333-1.333-1.333-2.667 0-4a75.915 75.915 0 0 1 12 2.5c6.525-.571 7.858-3.071 4-7.5l-10-2c-1.824-.66-3.157-1.827-4-3.5-1.746-.749-2.746-2.083-3-4 1.43-7.096 5.763-10.429 13-10 2.849.464 5.516 1.131 8 2Z"/><path style="opacity:1" fill="#e19e21" d="M847.5 227.5c.162-11.095 1.162-11.428 3-1a29.825 29.825 0 0 1 5 2l-2.5 1a24.3 24.3 0 0 1-5.5-2Z"/><path style="opacity:1" fill="#ebd9b3" d="M301.5 235.5a802.777 802.777 0 0 0 5 4h-2a6.547 6.547 0 0 1-3-3v-1Z"/><path style="opacity:.012" fill="#f9f2d7" d="M753.5 235.5c-.067 1.459.266 2.792 1 4-1.086-.12-1.753-.787-2-2 .043-.916.376-1.583 1-2Z"/><path style="opacity:1" fill="#907044" d="M812.5 227.5v17h-1c-1.257-5.203-1.257-10.536 0-16 .122-4.338.455-4.672 1-1Z"/><path style="opacity:1" fill="#b2893d" d="M433.5 230.5c1.506 2.969 1.173 5.802-1 8.5 1.876.918 2.876 2.418 3 4.5a892.751 892.751 0 0 1-6-4c3.508-1.925 4.841-4.925 4-9Z"/><path style="opacity:1" fill="#c19c61" d="M726.5 216.5a18.33 18.33 0 0 0-4 6c-2.718 5.593-2.218 10.927 1.5 16 .232-1.237.732-2.237 1.5-3 0 .667.333 1 1 1 2.702 2.263 5.869 3.597 9.5 4a34.512 34.512 0 0 1 9.5-2.5l2 2c-1.289 1.802-2.956 2.969-5 3.5 1.126-1.358 1.126-2.692 0-4-5.624 2.803-11.124 2.469-16.5-1-.667.667-.667 1.333 0 2 1.518.663 2.685 1.663 3.5 3-6.89-2.253-10.223-7.086-10-14.5a40.281 40.281 0 0 1 1.5-7.5c1.076-2.579 2.909-4.246 5.5-5Z"/><path style="opacity:1" fill="#936929" d="M774.5 230.5c.001 4.526.335 9.193 1 14-.904-.709-1.237-1.709-1-3-.841-1.879-1.175-3.879-1-6 .951-1.419 1.284-3.085 1-5Z"/><path style="opacity:1" fill="#d39f2f" d="M479.5 236.5c1.086.12 1.753.787 2 2a19.048 19.048 0 0 0-1 6h-1c-3.254-1.173-4.42-3.506-3.5-7 2.273 4.155 3.439 3.822 3.5-1Z"/><path style="opacity:1" fill="#bb9968" d="M579.5 231.5h1c-.093 5.148 1.907 9.148 6 12-2.179-.34-4.012-1.34-5.5-3-1.376-3.093-1.876-6.093-1.5-9Z"/><path style="opacity:1" fill="#b19563" d="M318.5 243.5c.734-1.208 1.067-2.541 1-4-2.593 1.353-5.427 2.019-8.5 2-2.544.164-4.71-.503-6.5-2h2c1.408.561 2.908.895 4.5 1a30.73 30.73 0 0 1 10.5-2.5c1.466 3.058.466 4.891-3 5.5Z"/><path style="opacity:1" fill="#c8994f" d="M543.5 221.5c-.475 2.582.192 4.582 2 6-.284 1.915.049 3.581 1 5 2.669 6.94 7.669 9.274 15 7 .111.617.444 1.117 1 1.5-4.504.34-8.837.507-13 .5 4.116 1.781 8.449 2.447 13 2-4.841 2.752-9.508 2.419-14-1-4.812-4.627-7.146-10.294-7-17 .16-1.653.826-2.986 2-4Z"/><path style="opacity:1" fill="#b48d49" d="M602.5 214.5h1c.166 6.675 0 13.342-.5 20l-1.5 3c1.673 2.023 2.34 4.356 2 7-.768-.763-1.268-1.763-1.5-3-4.997 3.731-10.163 4.398-15.5 2 1.788.285 3.455-.048 5-1-1.99-.998-3.99-1.998-6-3-.929-1.189-1.262-2.522-1-4 2.456 4.058 6.123 5.725 11 5 2.627-.29 4.294-1.624 5-4 1.844-7.154 2.511-14.487 2-22Z"/><path style="opacity:.133" fill="#f1e7c1" d="M600.5 236.5c-.706 2.376-2.373 3.71-5 4 1.282-1.68 2.949-3.013 5-4Z"/><path style="opacity:1" fill="#b48a44" d="M618.5 223.5c.6 1.4 1.6 2.4 3 3v18h-3v-21Z"/><path style="opacity:1" fill="#c3a164" d="M759.5 232.5c-1.082 6.731 1.918 9.231 9 7.5 2.187-1.025 3.854-2.525 5-4.5-.175 2.121.159 4.121 1 6-1.32 1.442-2.986 2.108-5 2-2.508-1.737-5.508-2.57-9-2.5-1.563-.759-2.563-1.926-3-3.5-.423-2.281.244-3.948 2-5Z"/><path style="opacity:1" fill="#e19c27" d="M561.5 239.5c4.166.108 4.833 1.441 2 4h-1c-4.551.447-8.884-.219-13-2 4.163.007 8.496-.16 13-.5-.556-.383-.889-.883-1-1.5Z"/><path style="opacity:1" fill="#e0a13b" d="M757.5 237.5c.437 1.574 1.437 2.741 3 3.5 3.492-.07 6.492.763 9 2.5-2.73 2.091-5.73 2.424-9 1l-3-2-2-4c.457-.798 1.124-1.131 2-1Z"/><path style="opacity:1" fill="#de9e2c" d="M867.5 241.5c-.787 1.604-2.12 2.271-4 2a84.902 84.902 0 0 1-13-.5 12.403 12.403 0 0 1-4-2.5c5.422 1.091 11.089 1.091 17 0 1.34-1.188 2.007-2.688 2-4.5-1.398-3.539-4.065-5.373-8-5.5 8.716-1.61 12.05 2.057 10 11Z"/><path style="opacity:1" fill="#df9b27" d="M299.5 224.5v3h21c.876-.131 1.543.202 2 1-7.489.667-14.822 1.333-22 2-.639.597-.972 1.43-1 2.5-.113 1.699.553 2.866 2 3.5a6.547 6.547 0 0 0 3 3c1.79 1.497 3.956 2.164 6.5 2 3.073.019 5.907-.647 8.5-2 .067 1.459-.266 2.792-1 4h-1a67.246 67.246 0 0 1-15-1c-7.125-7.123-7.792-14.79-2-23l1 1c-1.13 1.122-1.797 2.456-2 4Z"/><path style="opacity:1" fill="#c49e61" d="M413.5 232.5c-.285 1.788.048 3.455 1 5a31.642 31.642 0 0 0 3-5c-.256 2.292.077 4.459 1 6.5 3.625 1.747 7.292 1.914 11 .5a892.751 892.751 0 0 0 6 4c.342.838 1.008 1.172 2 1-2.295 1.292-4.128.626-5.5-2-1.789 1.729-3.956 2.396-6.5 2h-4c-7.207-1.097-9.873-5.097-8-12Z"/><path style="opacity:1" fill="#e39e26" d="M415.5 239.5a83.398 83.398 0 0 0 14 3c-3.284 1.157-6.618 1.324-10 .5-1.819-.74-3.152-1.907-4-3.5Z"/><path style="opacity:1" fill="#d79b30" d="M455.5 239.5c1.406-.473 2.073-1.473 2-3 1.457-1.742 2.624-3.742 3.5-6l.5 2c-1.353 3.73-2.686 7.396-4 11-1.322.17-2.489-.163-3.5-1a53.631 53.631 0 0 0-2.5-6.5l.5-2.5c1.459 1.932 2.625 3.932 3.5 6Z"/><path style="opacity:.012" fill="#eadbbd" d="M458.5 233.5a5.727 5.727 0 0 0-1 3c.073 1.527-.594 2.527-2 3v-2c.522-1.719 1.522-3.052 3-4Z"/><path style="opacity:1" fill="#d89b31" d="M742.5 243.5c-1.208.734-2.541 1.067-4 1h-6c-1.291.237-2.291-.096-3-1-.815-1.337-1.982-2.337-3.5-3-.667-.667-.667-1.333 0-2 5.376 3.469 10.876 3.803 16.5 1 1.126 1.308 1.126 2.642 0 4Z"/><path style="opacity:1" fill="#d0b07b" d="M302.5 242.5a67.246 67.246 0 0 0 15 1c-5.216 2.688-10.216 2.355-15-1Z"/><path style="opacity:.651" fill="#f7efcd" d="M756.5 242.5h1l3 2c-1.983.343-3.317-.324-4-2Z"/><path style="opacity:1" fill="#fffbc8" d="M347.5 244.5h20a120.118 120.118 0 0 1-14 2c-2.383.139-4.383-.528-6-2Z"/><path style="opacity:.133" fill="#fffce0" d="M394.5 244.5h3c-1 2.667-2 2.667-3 0Z"/><path style="opacity:1" fill="#fefcd8" d="M421.5 244.5h4c-1.532 2.281-2.866 2.281-4 0Z"/><path style="opacity:.133" fill="#fffce0" d="M618.5 244.5h3c-1 2.667-2 2.667-3 0Z"/><path style="opacity:1" fill="#fffbce" d="M656.5 244.5h19c-2.292.966-4.792 1.633-7.5 2-2.688-1.177-5.354-1.177-8 0-1.459-.308-2.626-.975-3.5-2Z"/><path style="opacity:1" fill="#fffdcf" d="M732.5 244.5h6c-2.094 2.494-4.094 2.494-6 0Z"/><path style="opacity:.235" fill="#fefbdf" d="M811.5 244.5h4c-.761.891-1.761 1.558-3 2-.798-.457-1.131-1.124-1-2Z"/><path style="opacity:1" fill="#fffcd4" d="M854.5 244.5h6c-2.094 2.494-4.094 2.494-6 0Z"/><path style="opacity:.02" fill="#fffbdb" d="M275.5 244.5h5c-1.667 2.667-3.333 2.667-5 0Z"/><path style="opacity:.004" fill="#fffadc" d="M454.5 244.5h3c-.76 2.485-1.76 2.485-3 0Z"/><path style="opacity:.133" fill="#fffcd9" d="M522.5 244.5h3c-1 2.667-2 2.667-3 0Z"/><path style="opacity:.004" fill="#fffade" d="M603.5 244.5h2c-.667 2.667-1.333 2.667-2 0Z"/><path style="opacity:.004" fill="#fefbdc" d="M775.5 244.5h2c-.667 2.667-1.333 2.667-2 0Z"/></svg>